<svg width="25" height="10" viewBox="0 0 25 10" fill="none" xmlns="http://www.w3.org/2000/svg">
<path d="M5.67172 6.69263C4.86077 6.69263 4.19727 7.35612 4.19727 8.16706C4.19727 8.99275 4.86077 9.6415 5.67172 9.6415C6.48267 9.6415 7.14618 8.99275 7.14618 8.16706C7.14618 7.35612 6.48267 6.69263 5.67172 6.69263Z" fill="#4076E5"/>
<path d="M24.0142 5.66056L23.2328 4.14189C23.218 4.09766 23.1885 4.06817 23.1738 4.03868L23.1295 3.99445C23.1 3.95022 23.0558 3.92073 23.0116 3.89124C22.9968 3.86175 22.9674 3.84701 22.9379 3.84701C22.9084 3.83226 22.8789 3.81752 22.8494 3.80277C22.8052 3.77328 22.7462 3.77328 22.6872 3.75854L19.9742 3.27198L17.3054 2.80016L16.524 2.66746L13.1327 1.16353C12.6019 0.853899 11.6583 0.794922 11.3929 0.794922H7.08745C6.39446 0.794922 5.39183 1.23725 5.03796 1.45842H5.0232C4.91999 1.5174 4.78729 1.60586 4.63985 1.69433C4.46291 1.81228 4.27123 1.94498 4.07955 2.06294C3.91736 2.18089 3.76991 2.2841 3.62247 2.37257C3.46028 2.47578 3.32757 2.56425 3.22436 2.63797C3.19487 2.65271 3.15065 2.6822 3.12116 2.69694L1.48451 3.02132H1.46975C1.44026 3.03607 1.39605 3.05081 1.35181 3.06555C1.26335 3.09504 1.18962 3.15402 1.11589 3.22774C1.05692 3.28672 1.01269 3.3457 0.983198 3.41942C0.953709 3.4784 0.938952 3.55212 0.924208 3.6111V3.62584C0.924208 3.65533 0.909457 3.67007 0.894712 3.68482C0.894712 3.69956 0.879976 3.71431 0.879976 3.74379V5.52786L0.540857 6.88434C0.511368 7.0023 0.496623 7.135 0.540857 7.25295C0.555601 7.32667 0.585087 7.4004 0.629321 7.45937C0.747277 7.63631 0.924207 7.75426 1.13063 7.78375L3.46028 8.1671C3.47502 7.63631 3.72567 7.06128 4.05005 6.70741C4.44815 6.25034 5.03794 5.97019 5.6867 5.97019C6.89575 5.97019 7.8689 6.94332 7.88365 8.1671H16.7009C16.7009 7.20872 17.3202 6.39778 18.1754 6.10289C18.4113 6.01443 18.6472 5.97019 18.9126 5.97019C20.1364 5.97019 21.0948 6.94332 21.1095 8.1671H23.3655C23.7783 8.1671 24.1027 7.84273 24.1027 7.42988V5.99968C24.1027 5.88173 24.0732 5.76377 24.0142 5.66056Z" fill="#4076E5"/>
<path d="M18.9124 6.69263C18.1015 6.69263 17.438 7.35612 17.438 8.16706C17.438 8.99275 18.1015 9.6415 18.9124 9.6415C19.7234 9.6415 20.3869 8.99275 20.3869 8.16706C20.3869 7.35612 19.7234 6.69263 18.9124 6.69263Z" fill="#4076E5"/>
</svg>
