<svg width="25" height="13" viewBox="0 0 25 13" fill="none" xmlns="http://www.w3.org/2000/svg">
<path d="M20.446 10.5348C20.446 11.4784 19.6793 12.2303 18.7504 12.2303C17.8068 12.2303 17.0549 11.4637 17.0549 10.5348C17.0549 9.59127 17.8216 8.83936 18.7504 8.83936C19.694 8.83936 20.446 9.59127 20.446 10.5348Z" fill="#4076E5"/>
<path d="M7.54526 10.5348C7.54526 11.4784 6.77861 12.2303 5.84978 12.2303C4.9062 12.2303 4.1543 11.4637 4.1543 10.5348C4.1543 9.59127 4.92094 8.83936 5.84978 8.83936C6.79336 8.83936 7.54526 9.59127 7.54526 10.5348Z" fill="#4076E5"/>
<path d="M23.9993 7.40941L22.8936 5.56649C22.8493 5.49277 22.7904 5.41905 22.7167 5.37482C22.6429 5.31585 22.5545 5.27162 22.466 5.24213L18.5295 4.16587L14.2833 1.17296C13.6494 0.701172 12.8532 0.435791 12.0718 0.435791H6.941C5.48139 0.435791 4.06604 0.937066 2.93079 1.83641C2.70963 1.99859 2.5032 2.19025 2.31154 2.38192C2.1641 2.52935 2.03143 2.69153 1.91348 2.85371C1.81027 2.9864 1.70705 3.11909 1.61859 3.26652C1.45641 3.51716 1.3237 3.76779 1.19101 4.01843C1.16152 4.04792 1.14681 4.09215 1.13207 4.13638C1.10258 4.23958 1.05832 4.34279 1.01409 4.44599C0.984607 4.49022 0.955138 4.54919 0.940394 4.59342C0.92565 4.62291 0.925622 4.63765 0.910878 4.6524C0.896134 4.69663 0.881407 4.7556 0.881407 4.79983C0.837176 4.91778 0.807709 5.03573 0.763478 5.15367C0.748735 5.1979 0.733962 5.24213 0.733962 5.28636C0.704475 5.36008 0.689719 5.4338 0.674975 5.50751C0.616001 5.75815 0.571776 6.02353 0.542288 6.28891C0.512801 6.46583 0.512817 6.64275 0.512817 6.81967V9.25233C0.512817 9.45874 0.601284 9.6504 0.74872 9.79784C0.792951 9.84207 0.851918 9.90104 0.925636 9.93053L2.39999 10.653C2.5032 10.7119 2.60641 10.7414 2.72436 10.7414H3.49101C3.49101 10.7267 3.47626 10.6972 3.49101 10.6824C3.46152 10.6235 3.46154 10.5497 3.46154 10.4908C3.46154 9.17862 4.53781 8.10235 5.84999 8.10235C7.17691 8.10235 8.2532 9.17862 8.2532 10.4908C8.2532 10.5497 8.25319 10.6235 8.23844 10.6824C8.23844 10.6972 8.23847 10.7267 8.22373 10.7414H16.3916C16.3916 10.7267 16.3769 10.6972 16.3916 10.6824C16.3622 10.6235 16.3622 10.5645 16.3622 10.4908C16.3622 9.16387 17.4237 8.10235 18.7506 8.10235C20.0776 8.10235 21.1538 9.16387 21.1538 10.4908C21.1538 10.5645 21.1539 10.6235 21.1244 10.6824C21.1391 10.6972 21.1244 10.7267 21.1244 10.7414H22.9968C23.3654 10.7414 23.675 10.476 23.734 10.1222L24.0878 7.92543V7.91068C24.1025 7.86645 24.1026 7.82222 24.1026 7.77799C24.1026 7.6453 24.0731 7.51261 23.9993 7.40941ZM2.42947 4.82932C2.73908 4.10689 3.21091 3.45818 3.84488 2.95691C4.7295 2.26397 5.82049 1.89539 6.941 1.89539H8.75448L9.34421 4.82932H2.42947ZM10.8186 4.82932V4.68188L10.2583 1.89539H12.0718C12.5436 1.89539 13.0154 2.02808 13.4135 2.33769L16.9224 4.82932H10.8186Z" fill="#4076E5"/>
</svg>
