<svg width="34" height="10" viewBox="0 0 34 10" fill="none" xmlns="http://www.w3.org/2000/svg">
<path d="M32.6306 3.55449L28.8532 3.10039L27.0574 1.28398C26.9542 1.18078 26.8304 1.09821 26.7065 1.05693C26.5827 0.995006 26.4588 0.974365 26.3143 0.974365H7.73716C7.59267 0.974365 7.46881 0.995006 7.34497 1.05693C7.22112 1.09821 7.09731 1.18078 6.9941 1.28398L5.19825 3.10039L1.42092 3.55449C0.904885 3.61642 0.512695 4.07052 0.512695 4.58655V7.16667C0.512695 7.74462 0.966804 8.19873 1.54476 8.19873H6.25098C6.2097 8.0336 6.18906 7.86847 6.18906 7.6827C6.18906 6.25847 7.34497 5.10257 8.76922 5.10257C10.1935 5.10257 11.3494 6.25847 11.3494 7.6827C11.3494 7.86847 11.3287 8.0336 11.2875 8.19873H22.764C22.7227 8.0336 22.7021 7.86847 22.7021 7.6827C22.7021 6.25847 23.858 5.10257 25.2823 5.10257C26.7065 5.10257 27.8624 6.25847 27.8624 7.6827C27.8624 7.86847 27.8418 8.0336 27.8005 8.19873H32.5067C33.0847 8.19873 33.5388 7.74462 33.5388 7.16667V4.58655C33.5388 4.07052 33.1466 3.61642 32.6306 3.55449Z" fill="#4076E5"/>
<path d="M8.76929 9.23068C9.62429 9.23068 10.3174 8.53758 10.3174 7.6826C10.3174 6.82762 9.62429 6.13452 8.76929 6.13452C7.9143 6.13452 7.22119 6.82762 7.22119 7.6826C7.22119 8.53758 7.9143 9.23068 8.76929 9.23068Z" fill="#4076E5"/>
<path d="M25.2825 9.23068C26.1375 9.23068 26.8306 8.53758 26.8306 7.6826C26.8306 6.82762 26.1375 6.13452 25.2825 6.13452C24.4275 6.13452 23.7344 6.82762 23.7344 7.6826C23.7344 8.53758 24.4275 9.23068 25.2825 9.23068Z" fill="#4076E5"/>
</svg>
