<svg width="25" height="13" viewBox="0 0 25 13" fill="none" xmlns="http://www.w3.org/2000/svg">
<path d="M7.34428 10.3554C7.34428 11.2842 6.57761 12.0509 5.64876 12.0509C4.70517 12.0509 3.95325 11.299 3.95325 10.3554C3.95325 9.41182 4.71992 8.65991 5.64876 8.65991C6.59236 8.65991 7.34428 9.42656 7.34428 10.3554Z" fill="#4076E5"/>
<path d="M19.8763 10.3554C19.8763 11.2842 19.1096 12.0509 18.1807 12.0509C17.2372 12.0509 16.4852 11.299 16.4852 10.3554C16.4852 9.41182 17.2372 8.65991 18.1807 8.65991C19.1243 8.65991 19.8763 9.42656 19.8763 10.3554Z" fill="#4076E5"/>
<path d="M24.1372 6.28639L20.9084 4.13386L18.0334 0.551216V0.53647C18.0039 0.49224 17.9597 0.44801 17.9154 0.433267C17.7975 0.31532 17.6205 0.256348 17.4584 0.256348H2.34619C2.16926 0.256348 1.99234 0.330063 1.87439 0.433267C1.7417 0.551214 1.65323 0.683906 1.62375 0.860826L0.886567 4.62039C0.886567 4.64987 0.871826 4.66462 0.871826 4.67936V9.83955V9.85429C0.871826 10.0607 0.960287 10.2376 1.07824 10.3703C1.22567 10.503 1.4026 10.5767 1.60901 10.5767H3.09811C3.08336 10.503 3.08336 10.444 3.08336 10.3703C3.08336 8.9402 4.23337 7.79022 5.66349 7.79022C7.09362 7.79022 8.24362 8.9402 8.24362 10.3703C8.24362 10.444 8.24362 10.503 8.22888 10.5767H15.6302C15.6154 10.503 15.6154 10.444 15.6154 10.3703C15.6154 8.9402 16.7654 7.79022 18.1955 7.79022C19.6257 7.79022 20.7757 8.9402 20.7757 10.3703C20.7757 10.444 20.7757 10.503 20.7609 10.5767H23.7244C23.9308 10.5767 24.1077 10.503 24.2552 10.3703C24.3731 10.2376 24.4616 10.0607 24.4616 9.85429V9.83955V6.89087C24.4616 6.65498 24.3436 6.41908 24.1372 6.28639ZM6.76926 4.6941H2.36093L2.95067 1.73069H6.76926V4.6941ZM12.6667 4.6941H8.24362V1.73069H12.6667V4.6941ZM14.1411 4.6941V1.73069H17.1045L19.4635 4.6941H14.1411Z" fill="#4076E5"/>
</svg>
