<svg width="25" height="13" viewBox="0 0 25 13" fill="none" xmlns="http://www.w3.org/2000/svg">
<path d="M18.9421 8.85425C17.9985 8.85425 17.2466 9.60616 17.2466 10.5497C17.2466 10.6234 17.2466 10.6972 17.2613 10.7561C17.3645 11.5965 18.0722 12.2452 18.9421 12.2452C19.7972 12.2452 20.5196 11.5965 20.6229 10.7561C20.6376 10.6972 20.6376 10.6234 20.6376 10.5497C20.6376 9.60616 19.8709 8.85425 18.9421 8.85425Z" fill="#4076E5"/>
<path d="M5.67304 8.85425C4.7442 8.85425 3.97754 9.60616 3.97754 10.5497C3.97754 10.6234 3.97753 10.6972 3.99227 10.7561C4.09548 11.5965 4.81791 12.2452 5.67304 12.2452C6.54291 12.2452 7.2506 11.5965 7.35381 10.7561C7.36855 10.6972 7.36855 10.6234 7.36855 10.5497C7.36855 9.60616 6.61663 8.85425 5.67304 8.85425Z" fill="#4076E5"/>
<path d="M24.0582 7.58633L23.321 5.36008C23.2473 5.12419 23.0409 4.93252 22.805 4.87355L18.9569 3.95946L14.2832 1.17296C13.6492 0.701172 12.8531 0.435791 12.0717 0.435791H2.72423C2.44411 0.435791 2.19347 0.58322 2.06078 0.833857L0.586418 3.79728C0.542187 3.90048 0.512695 4.00369 0.512695 4.12164V9.28182C0.512695 9.56194 0.674873 9.82732 0.925514 9.94526L2.39987 10.6824C2.50308 10.7267 2.60629 10.7562 2.72423 10.7562H3.255C3.24026 10.6972 3.24027 10.6235 3.24027 10.5497C3.24027 9.2081 4.33129 8.11709 5.67295 8.11709C7.01462 8.11709 8.10564 9.2081 8.10564 10.5497C8.10564 10.6235 8.10564 10.6972 8.0909 10.7562H16.5242C16.5095 10.6972 16.5095 10.6235 16.5095 10.5497C16.5095 9.2081 17.6005 8.11709 18.9422 8.11709C20.2838 8.11709 21.3749 9.2081 21.3749 10.5497C21.3749 10.6235 21.3749 10.6972 21.3601 10.7562H22.6281C22.9524 10.7562 23.2326 10.5497 23.321 10.2549L24.0582 8.04337C24.1172 7.89594 24.1172 7.73376 24.0582 7.58633ZM5.03899 4.87355H1.98705V4.3133L3.18128 1.92487H5.54027L5.03899 4.87355ZM10.8332 4.87355H6.54282L6.66077 4.13638L7.02936 1.92487H10.8332V4.87355ZM12.3076 4.87355V1.9691C12.7056 2.01333 13.089 2.13128 13.4576 2.4114L16.3473 4.13638L17.5858 4.87355H12.3076Z" fill="#4076E5"/>
</svg>
