<svg width="25" height="10" viewBox="0 0 25 10" fill="none" xmlns="http://www.w3.org/2000/svg">
<path d="M23.9988 5.43909L22.952 4.36282C22.8635 4.25962 22.7456 4.1859 22.6129 4.15641L18.6321 3.08015L17.3495 2.31349L15.0052 0.898125C14.8873 0.824409 14.7546 0.794922 14.6219 0.794922H6.51291C6.35073 0.794922 6.20329 0.839152 6.0706 0.942356L5.70201 1.22248L3.31356 3.00643H1.35266C1.32317 3.00643 1.29369 3.00643 1.2642 3.02117C1.23471 3.03592 1.20523 3.03592 1.17574 3.03592H1.16098C1.04304 3.08015 0.954578 3.12438 0.866117 3.18335C0.866117 3.19809 0.851381 3.19809 0.851381 3.19809C0.807151 3.24232 0.762917 3.28655 0.73343 3.33078C0.703943 3.37501 0.689187 3.41924 0.674443 3.46347C0.659699 3.49296 0.644972 3.53719 0.644972 3.56668C0.615485 3.62565 0.615479 3.68462 0.615479 3.7436V7.06086C0.615479 7.39996 0.851383 7.69483 1.17574 7.76854L2.6501 8.13713C2.70908 8.16661 2.76804 8.16661 2.82702 8.16661H3.5642C3.5642 7.56213 3.81484 7.01663 4.21292 6.61856C4.40458 6.41215 4.64048 6.24997 4.9206 6.14677C5.18599 6.02882 5.46612 5.96985 5.77573 5.96985C6.08535 5.96985 6.36548 6.02882 6.63087 6.14677C6.91099 6.24997 7.14688 6.41215 7.33855 6.61856C7.73663 7.01663 7.98727 7.56213 7.98727 8.16661H16.8334C16.8334 7.56213 17.0841 7.01663 17.4821 6.61856C17.6738 6.41215 17.9097 6.24997 18.1898 6.14677C18.4552 6.02882 18.7353 5.96985 19.045 5.96985C19.3546 5.96985 19.6347 6.02882 19.9001 6.14677C20.1802 6.24997 20.4161 6.41215 20.6078 6.61856C21.0059 7.01663 21.2565 7.56213 21.2565 8.16661H23.468C23.8809 8.16661 24.2052 7.84226 24.2052 7.42944V5.95511C24.2052 5.76344 24.1315 5.58652 23.9988 5.43909Z" fill="#4076E5"/>
<path d="M7.25 8.16672C7.25 8.97761 6.58654 9.64106 5.77564 9.64106C4.96473 9.64106 4.30127 8.97761 4.30127 8.16672C4.30127 7.35583 4.96473 6.69238 5.77564 6.69238C6.58654 6.69238 7.25 7.35583 7.25 8.16672Z" fill="#4076E5"/>
<path d="M20.5193 8.16672C20.5193 8.97761 19.8558 9.64106 19.0449 9.64106C18.234 9.64106 17.5706 8.97761 17.5706 8.16672C17.5706 7.35583 18.234 6.69238 19.0449 6.69238C19.8558 6.69238 20.5193 7.35583 20.5193 8.16672Z" fill="#4076E5"/>
</svg>
