<svg width="25" height="10" viewBox="0 0 25 10" fill="none" xmlns="http://www.w3.org/2000/svg">
<path d="M6.04174 6.67749C5.2161 6.67749 4.56738 7.34094 4.56738 8.15183C4.56738 8.97746 5.2161 9.62617 6.04174 9.62617C6.85263 9.62617 7.51609 8.97746 7.51609 8.15183C7.51609 7.34094 6.85263 6.67749 6.04174 6.67749Z" fill="#4076E5"/>
<path d="M19.311 6.69238C18.4854 6.69238 17.8367 7.35584 17.8367 8.16672C17.8367 8.97761 18.4854 9.64106 19.311 9.64106C20.1219 9.64106 20.7854 8.97761 20.7854 8.16672C20.7854 7.35584 20.1219 6.69238 19.311 6.69238Z" fill="#4076E5"/>
<path d="M23.8963 5.46858L22.8495 4.36282V4.34808C22.7463 4.23013 22.6136 4.15642 22.4661 4.12693L19.1931 3.41925L14.1065 0.868639C14.0033 0.824409 13.9001 0.794922 13.7822 0.794922H1.9873C1.81038 0.794922 1.6482 0.853895 1.53025 0.971843C1.39756 1.0603 1.30909 1.20774 1.26485 1.36991C1.23537 1.48786 0.616136 4.14167 0.527675 5.85191C0.512931 5.88139 0.512939 5.92563 0.512939 5.96986V7.06087C0.512939 7.41471 0.778321 7.72432 1.13217 7.78329L3.46166 8.16662H3.83025C3.83025 7.59163 4.0514 7.07561 4.40525 6.69228C4.71486 6.35318 5.12768 6.10255 5.59947 6.01409C5.61422 6.01409 5.62897 5.99934 5.65846 6.01409C5.77641 5.9846 5.90909 5.96986 6.04179 5.96986C6.17448 5.96986 6.30716 5.9846 6.42511 6.01409C6.4546 5.99934 6.46935 6.01409 6.4841 6.01409C6.95589 6.10255 7.36871 6.35318 7.67832 6.69228C8.03217 7.07561 8.25332 7.59163 8.25332 8.16662H17.0995C17.0995 7.59163 17.3206 7.07561 17.6745 6.69228C17.9841 6.35318 18.3969 6.10255 18.8687 6.01409C18.8834 6.01409 18.8982 5.99934 18.9277 6.01409C19.0456 5.9846 19.1783 5.96986 19.311 5.96986C19.4437 5.96986 19.5764 5.9846 19.6943 6.01409C19.7238 5.99934 19.7386 6.01409 19.7533 6.01409C20.2251 6.10255 20.6379 6.35318 20.9476 6.69228C21.3014 7.07561 21.5226 7.59163 21.5226 8.16662H23.3655C23.7783 8.16662 24.1027 7.82752 24.1027 7.42945V5.96986C24.1027 5.77819 24.029 5.60127 23.8963 5.46858ZM6.41038 3.7436H2.29692C2.31167 3.62565 2.34114 3.49296 2.35589 3.37502C2.37063 3.27181 2.40011 3.15387 2.41485 3.06541C2.4296 2.9622 2.4591 2.859 2.47384 2.77054C2.48858 2.68208 2.50332 2.59362 2.5328 2.50516L2.57703 2.28401H6.41038V3.7436ZM10.8335 3.7436H7.88473V2.28401H10.8335V3.7436ZM12.3078 3.7436V2.28401H13.6053L16.5245 3.7436H12.3078Z" fill="#4076E5"/>
</svg>
