<svg width="25" height="10" viewBox="0 0 25 10" fill="none" xmlns="http://www.w3.org/2000/svg">
<path d="M24.0435 5.70462C24.0287 5.61616 23.9697 5.54244 23.896 5.46872V5.45398L22.8492 4.36297C22.746 4.24502 22.6133 4.17131 22.4659 4.14182L19.2371 3.44888H19.2223C19.2076 3.44888 19.2076 3.43414 19.1928 3.43414L14.1063 0.883536C14.0031 0.839306 13.8999 0.809814 13.7819 0.809814H3.09282C2.9159 0.809814 2.75372 0.868789 2.62103 0.971992C2.56205 1.01622 2.53257 1.04571 2.50308 1.08994L1.7659 2.07775C0.763336 3.40465 0.542182 4.37771 0.512695 5.89628V7.06101C0.512695 7.41485 0.77808 7.72446 1.13193 7.78344L3.46141 8.16676C3.47616 6.94306 4.44923 5.97 5.67295 5.97C6.89667 5.97 7.86975 6.94306 7.88449 8.16676H16.7306C16.7454 6.94306 17.7185 5.97 18.9422 5.97C20.1659 5.97 21.139 6.94306 21.1537 8.16676H23.3653C23.7781 8.16676 24.1024 7.84241 24.1024 7.42959V5.95526C24.1024 5.86679 24.0877 5.79308 24.0435 5.70462ZM5.67295 4.12707H2.85693C2.72423 4.12707 2.59154 4.05336 2.53257 3.93541C2.47359 3.81747 2.47359 3.67003 2.56205 3.55208L3.46141 2.28415H5.67295V4.12707ZM10.8332 4.12707H7.14731V2.28415H10.8332V4.12707ZM12.3076 4.12707V2.28415H13.605L17.2909 4.12707H12.3076Z" fill="#4076E5"/>
<path d="M7.14745 8.16672C7.14745 8.9776 6.48399 9.64105 5.67309 9.64105C4.86219 9.64105 4.19873 8.9776 4.19873 8.16672C4.19873 7.35583 4.86219 6.69238 5.67309 6.69238C6.48399 6.69238 7.14745 7.35583 7.14745 8.16672Z" fill="#4076E5"/>
<path d="M20.4167 8.16672C20.4167 8.9776 19.7533 9.64105 18.9424 9.64105C18.1315 9.64105 17.468 8.9776 17.468 8.16672C17.468 7.35583 18.1315 6.69238 18.9424 6.69238C19.7533 6.70713 20.4167 7.35583 20.4167 8.16672Z" fill="#4076E5"/>
<path d="M24.0435 5.70447C24.0287 5.61601 23.9697 5.54229 23.896 5.46857V5.45383L22.8492 4.36282V4.34808C22.746 4.23013 22.6133 4.15641 22.4659 4.12692L19.2371 3.43399H19.2223C19.2076 3.43399 19.2076 3.41924 19.1928 3.41924L14.1063 0.868638C14.0031 0.824408 13.8999 0.794922 13.7819 0.794922H3.09282C2.9159 0.794922 2.73898 0.853894 2.62103 0.971841C2.56205 1.01607 2.53257 1.04556 2.50308 1.08979L1.7659 2.07759C0.763336 3.4045 0.542182 4.37756 0.512695 5.89613V7.06086C0.512695 7.4147 0.77808 7.72432 1.13193 7.78329L3.46141 8.16662C3.47616 6.94291 4.44923 5.96985 5.67295 5.96985C6.89667 5.96985 7.86975 6.94291 7.88449 8.16662H16.7306C16.7454 6.94291 17.7185 5.96985 18.9422 5.96985C20.1659 5.96985 21.139 6.94291 21.1537 8.16662H23.3653C23.7781 8.16662 24.1024 7.84226 24.1024 7.42945V5.95511C24.1024 5.86665 24.0877 5.79293 24.0435 5.70447ZM5.67295 4.12692H2.85693C2.72423 4.12692 2.59154 4.05321 2.53257 3.93526C2.47359 3.81732 2.47359 3.66988 2.56205 3.55193L3.46141 2.284H5.67295V4.12692ZM10.8332 4.12692H7.14731V2.284H10.8332V4.12692ZM12.3076 4.12692V2.284H13.605L17.2909 4.12692H12.3076Z" fill="#4076E5"/>
</svg>
