<?xml version="1.0" standalone="no"?>
<!DOCTYPE svg PUBLIC "-//W3C//DTD SVG 20010904//EN"
 "http://www.w3.org/TR/2001/REC-SVG-20010904/DTD/svg10.dtd">
<svg version="1.0" xmlns="http://www.w3.org/2000/svg"
 width="3829.000000pt" height="3638.000000pt" viewBox="0 0 3829.000000 3638.000000"
 preserveAspectRatio="xMidYMid meet">

<g transform="translate(0.000000,3638.000000) scale(0.100000,-0.100000)"
fill="#6c63ff" stroke="none">
<path d="M15679 36369 c-20 -8 -38 -34 -77 -117 -133 -281 -187 -530 -162
-747 7 -55 12 -103 13 -107 1 -3 -14 -26 -34 -50 -201 -243 -328 -595 -345
-958 -7 -150 -13 -155 113 91 133 258 223 397 346 534 l44 50 47 -92 c86 -172
179 -217 501 -243 72 -6 162 -14 200 -20 197 -26 438 -41 785 -49 302 -8 306
-8 378 -36 40 -16 77 -36 82 -45 23 -42 52 -230 52 -330 0 -167 -21 -218 -240
-607 -65 -117 -139 -259 -163 -315 -41 -98 -43 -107 -43 -203 0 -64 7 -125 18
-170 25 -95 86 -235 125 -283 37 -47 37 -54 10 -179 -26 -119 -50 -188 -142
-406 -41 -99 -66 -171 -61 -176 5 -5 84 -45 177 -89 l167 -81 23 42 c134 240
185 314 266 390 70 65 135 104 214 128 84 26 92 37 181 229 67 144 99 204 343
650 179 328 471 971 515 1133 12 46 11 48 -15 75 l-27 27 -565 0 c-310 0 -558
3 -552 6 7 4 115 41 241 83 275 93 350 105 522 88 132 -14 155 -21 172 -53 12
-23 137 -98 146 -88 3 2 1 24 -5 48 -44 195 -429 636 -839 961 -592 469 -1380
796 -2161 899 -168 23 -211 24 -250 10z m641 -209 c331 -54 751 -195 1025
-343 281 -153 581 -392 828 -661 l108 -118 -23 -25 c-97 -104 -464 -275 -554
-259 l-36 7 26 32 c52 65 144 204 185 278 l41 76 -72 69 c-198 187 -397 337
-659 494 -234 141 -426 238 -559 283 -58 20 -195 70 -305 111 -221 83 -222 91
-5 56z m-323 -1052 c-3 -8 -6 -5 -6 6 -1 11 2 17 5 13 3 -3 4 -12 1 -19z m-10
-100 c-3 -7 -5 -2 -5 12 0 14 2 19 5 13 2 -7 2 -19 0 -25z m2541 -1018 c165 0
192 -2 192 -15 0 -37 -133 -274 -263 -470 -94 -141 -334 -484 -351 -502 -9
-10 -23 10 -63 91 l-52 103 81 134 c44 73 107 175 140 226 33 51 57 96 54 101
-3 5 -46 26 -95 46 -150 62 -196 105 -195 178 2 47 23 68 88 88 50 15 188 29
236 24 19 -2 122 -4 228 -4z"/>
<path d="M15559 34486 c-173 -80 -195 -94 -265 -169 -57 -62 -190 -254 -182
-263 6 -5 54 10 207 65 62 23 166 52 230 65 l116 23 22 67 c39 118 50 277 19
275 -6 0 -72 -28 -147 -63z"/>
<path d="M16326 34262 c-7 -12 -56 -255 -56 -278 0 -13 18 -27 59 -46 87 -41
207 -134 347 -270 l124 -121 0 49 c-1 217 -149 454 -393 628 -68 49 -73 51
-81 38z"/>
<path d="M23075 33618 c-6 -18 -92 -294 -130 -420 -18 -59 -41 -142 -50 -185
l-17 -77 -22 39 c-20 38 -21 52 -18 247 2 168 0 214 -13 244 -18 44 -29 38
-67 -33 -32 -59 -35 -95 -48 -528 -6 -181 -13 -339 -16 -351 -5 -18 6 -26 93
-63 l98 -43 108 7 c127 8 221 36 309 92 66 42 63 29 33 163 -20 91 -30 532
-15 678 9 83 29 181 46 227 5 13 -13 15 -140 15 -108 0 -148 -3 -151 -12z"/>
<path d="M15250 33524 c-36 -30 -68 -62 -72 -72 -12 -32 -8 -142 7 -171 19
-38 77 -71 123 -71 21 0 58 12 87 28 40 22 51 34 57 62 13 56 0 131 -32 187
-27 47 -75 93 -97 93 -4 0 -37 -25 -73 -56z"/>
<path d="M15984 33208 c-41 -49 -65 -111 -71 -187 l-6 -68 66 -27 c75 -32 91
-30 209 31 73 38 81 53 69 118 -11 56 -34 97 -76 134 -32 28 -42 31 -99 31
-60 0 -66 -2 -92 -32z"/>
<path d="M21484 32254 c-18 -4 -27 -25 -54 -127 -18 -67 -52 -185 -75 -263
-23 -77 -53 -184 -66 -237 -12 -53 -26 -97 -30 -97 -19 0 -30 142 -23 309 6
162 -3 281 -22 300 -11 11 -94 -90 -94 -116 0 -13 -7 -106 -16 -206 -16 -178
-16 -243 2 -579 l7 -126 83 -21 c99 -25 184 -27 268 -6 61 16 240 99 284 134
l24 17 -34 64 -33 64 0 373 0 372 54 55 53 54 -70 16 c-73 16 -222 28 -258 20z"/>
<path d="M24948 31706 c-60 -49 -81 -80 -203 -301 -105 -190 -164 -274 -266
-375 -83 -81 -149 -162 -149 -182 0 -5 41 -6 98 -3 l97 7 95 63 c276 184 395
405 388 719 l-3 119 -57 -47z"/>
<path d="M25154 30403 c-21 -27 -95 -106 -164 -178 -69 -71 -171 -182 -227
-246 -128 -147 -175 -187 -271 -237 -79 -41 -594 -263 -689 -297 -73 -26 -56
-39 75 -58 59 -9 161 -24 227 -34 180 -26 482 -24 588 5 122 33 198 74 255
137 116 127 170 283 222 640 14 96 33 306 27 311 -2 2 -22 -17 -43 -43z m-124
-313 l48 -40 -14 -60 c-41 -179 -151 -341 -297 -442 -122 -83 -223 -112 -458
-129 l-153 -12 -44 49 -44 48 33 15 c19 8 115 54 214 102 285 139 487 284 605
438 30 39 57 71 59 71 2 0 25 -18 51 -40z"/>
<path d="M23685 30370 c-103 -42 -225 -103 -440 -219 -187 -101 -289 -135
-493 -162 -86 -12 -164 -24 -172 -26 -30 -10 50 -33 172 -48 186 -24 230 -39
286 -95 l31 -30 103 56 c235 128 431 286 533 429 43 61 79 125 73 130 -2 1
-43 -14 -93 -35z"/>
<path d="M16950 29300 c-122 -10 -342 -39 -350 -47 -5 -5 -24 -305 -36 -568
l-6 -141 93 -74 c52 -40 196 -159 322 -264 200 -167 226 -191 215 -206 -7 -9
-35 -45 -63 -79 -76 -94 -180 -265 -227 -371 -116 -264 -215 -659 -283 -1133
-60 -417 -68 -522 -69 -887 -1 -353 8 -500 45 -785 34 -256 105 -584 175 -809
41 -132 105 -286 118 -286 7 0 40 10 75 21 35 12 66 18 71 13 4 -5 15 -34 25
-64 63 -198 232 -573 360 -800 72 -127 264 -416 387 -582 l109 -148 -11 -327
c-6 -181 -15 -431 -20 -558 -5 -126 -10 -407 -10 -623 l0 -392 60 -398 c33
-218 69 -476 81 -572 12 -96 26 -179 33 -183 18 -13 207 -2 254 15 24 9 61 28
82 43 l39 27 -6 107 c-7 137 8 287 63 594 57 323 71 481 55 635 -15 148 -41
223 -129 371 -125 209 -161 297 -241 586 -69 252 -169 752 -212 1067 -12 90
-23 164 -25 166 -1 2 -30 6 -65 10 l-64 7 -7 60 c-4 33 -17 157 -28 275 -34
339 -48 412 -108 522 -65 122 -144 297 -137 307 2 5 34 21 70 36 l65 28 0 48
c0 26 -7 79 -15 117 -47 224 -103 587 -132 852 -22 208 -25 794 -5 965 17 137
128 702 177 895 140 554 318 847 580 952 35 14 50 14 120 3 203 -33 321 -83
424 -180 86 -81 149 -200 262 -492 44 -114 91 -231 104 -258 30 -67 113 -308
170 -495 106 -349 152 -572 240 -1162 30 -208 64 -427 75 -488 46 -252 212
-868 379 -1403 45 -142 81 -261 81 -265 0 -5 -53 -21 -117 -36 -65 -16 -122
-32 -126 -36 -7 -6 10 -324 28 -525 3 -33 10 -458 15 -945 10 -938 12 -973 64
-1249 l21 -114 77 62 c197 158 356 397 407 609 29 121 44 400 39 714 l-4 270
61 -6 c33 -4 103 -11 155 -17 205 -22 279 8 392 158 l39 51 -76 159 c-186 384
-285 632 -365 915 -50 175 -64 276 -51 360 41 256 32 718 -21 1083 -27 194
-78 453 -149 763 -33 145 -58 266 -56 269 3 2 36 -5 74 -16 37 -11 116 -32
175 -46 93 -22 114 -24 150 -15 60 16 139 99 159 165 39 136 -7 291 -102 340
-39 21 -189 60 -325 86 l-121 22 -61 -46 c-33 -26 -65 -47 -70 -47 -6 0 -17
33 -26 73 -17 75 -56 352 -56 392 0 53 -141 276 -349 550 -76 99 -175 236
-222 305 -237 351 -501 660 -727 852 -45 39 -81 72 -79 75 3 2 80 -11 173 -28
163 -30 176 -31 364 -26 213 6 282 18 385 67 34 16 83 48 109 72 l48 42 -4
-160 c-4 -124 -10 -171 -25 -214 l-20 -55 -84 1 c-46 1 -138 12 -204 24 -234
43 -270 49 -274 45 -2 -3 19 -30 46 -62 159 -185 517 -651 741 -965 125 -175
102 -159 262 -178 173 -20 204 -11 286 88 l53 65 -39 76 c-114 227 -202 479
-297 850 -77 301 -107 390 -179 531 -66 130 -140 221 -245 299 -133 101 -214
133 -499 201 -137 33 -313 89 -765 243 -419 143 -611 186 -955 212 -247 19
-640 26 -790 15z m1836 -440 c60 -16 244 -98 432 -193 51 -26 134 -87 139
-103 3 -8 -99 -13 -339 -17 -317 -6 -343 -5 -352 11 -26 50 -137 140 -241 196
-133 71 -195 109 -195 118 0 10 216 16 365 10 68 -2 150 -12 191 -22z m-1026
-840 c82 -20 290 -112 290 -128 0 -4 -34 -18 -76 -30 -42 -13 -167 -58 -278
-101 -288 -113 -351 -131 -530 -155 l-38 -5 6 37 c27 153 122 285 269 375 l62
39 105 -5 c58 -3 143 -15 190 -27z m3089 -2224 c26 -23 27 -66 3 -96 -41 -50
-147 -10 -172 65 -17 51 -8 58 75 53 54 -2 79 -8 94 -22z"/>
<path d="M25660 28638 c-6 -24 -15 -57 -20 -75 -13 -52 -67 -121 -215 -273
-153 -157 -203 -216 -230 -269 -21 -41 -56 -143 -52 -148 2 -2 24 6 49 17 25
11 78 25 119 31 71 10 77 9 161 -21 66 -24 95 -41 119 -68 l32 -36 -6 -95 c-4
-64 -16 -133 -37 -206 -18 -60 -33 -111 -35 -113 -1 -1 -36 15 -76 37 l-74 40
-24 -157 c-29 -196 -78 -416 -122 -547 -18 -55 -76 -185 -128 -290 -53 -104
-102 -202 -109 -218 l-13 -29 78 43 c43 23 94 51 114 62 26 15 59 57 125 160
49 77 94 145 100 151 6 6 31 43 57 82 54 82 109 142 144 155 13 5 48 10 76 11
l52 1 -49 6 -50 6 -47 135 c-58 163 -62 218 -23 276 49 73 105 132 152 164 44
30 51 32 119 27 94 -5 199 -55 348 -166 133 -99 224 -144 427 -215 154 -54
154 -54 191 -38 l38 17 -75 85 c-182 206 -434 380 -648 446 -32 10 -58 20 -58
24 0 3 41 94 91 201 50 107 120 262 155 346 35 84 70 163 79 176 12 19 13 26
3 35 -21 17 -152 82 -165 82 -9 0 -13 -17 -13 -53 0 -70 -23 -155 -66 -246
-42 -90 -86 -156 -217 -326 -56 -71 -102 -132 -104 -134 -9 -12 -55 49 -69 92
-13 40 -16 73 -11 160 4 85 3 108 -7 104 -62 -24 -193 -60 -263 -72 -88 -16
-193 -20 -193 -8 0 19 54 93 85 117 52 40 106 61 251 100 172 46 194 57 246
116 44 50 145 207 137 214 -7 5 -324 126 -331 126 -4 0 -12 -19 -18 -42z"/>
<path d="M14415 28258 c-275 -213 -420 -353 -463 -447 -19 -41 -26 -77 -30
-148 l-5 -93 -41 -10 c-143 -36 -300 -115 -416 -208 -44 -35 -80 -69 -80 -75
1 -37 13 -38 176 -17 229 29 223 33 103 -62 -245 -193 -310 -303 -394 -673
-15 -66 -31 -126 -35 -134 -20 -37 -90 278 -90 405 0 73 -8 94 -36 94 -20 0
-26 -9 -44 -70 -74 -250 -94 -423 -95 -815 0 -374 6 -455 76 -1080 l50 -450
-50 -295 c-55 -330 -74 -502 -69 -635 2 -71 6 -90 18 -93 12 -2 28 28 59 110
24 62 79 190 122 284 169 375 211 508 268 869 18 110 52 319 76 465 86 517
118 784 135 1120 5 107 16 233 25 279 33 170 105 355 205 526 29 50 61 105 72
124 95 166 206 299 479 576 l256 260 -82 129 c-45 72 -86 131 -91 132 -5 1
-49 -29 -99 -68z"/>
<path d="M23807 28218 c-49 -29 -105 -68 -126 -88 -36 -33 -38 -39 -45 -115
-10 -111 -35 -288 -126 -895 -148 -983 -200 -1476 -200 -1904 l0 -161 98 -3
c53 -1 105 -5 115 -8 14 -5 17 2 17 43 0 64 27 526 40 683 40 485 102 943 256
1880 66 408 83 556 67 597 -8 22 -10 22 -96 -29z"/>
<path d="M24591 27669 c28 -42 115 -106 175 -128 32 -12 86 -25 121 -28 71 -7
75 -1 49 61 -27 65 -112 100 -269 112 l-92 7 16 -24z"/>
<path d="M24649 26048 c-95 -116 -302 -361 -439 -522 -227 -267 -424 -515
-416 -523 3 -4 245 -42 268 -43 4 0 39 44 80 98 40 53 107 138 149 188 180
215 427 505 489 574 l68 76 -45 59 c-24 33 -56 79 -71 102 -15 24 -30 43 -33
43 -3 0 -26 -24 -50 -52z"/>
<path d="M26947 25125 c-6 -108 -28 -182 -113 -380 -138 -320 -182 -390 -430
-681 -82 -96 -153 -184 -158 -195 -6 -12 1 -110 19 -277 22 -207 32 -266 50
-302 38 -77 54 -140 75 -289 11 -80 20 -149 20 -153 0 -5 5 -6 10 -3 6 3 10
42 10 86 0 47 4 79 10 79 24 0 88 -122 119 -227 l31 -108 -25 -65 c-35 -88
-42 -148 -21 -188 19 -37 26 -38 114 -14 44 11 66 13 69 6 9 -27 135 -228 191
-304 55 -75 62 -89 62 -132 0 -36 8 -61 35 -107 19 -33 43 -79 54 -103 14 -33
37 -58 96 -102 l77 -58 -27 -18 c-15 -10 -45 -26 -66 -35 l-37 -17 48 -62 49
-63 -14 -45 c-11 -40 -11 -49 1 -67 16 -22 139 -236 164 -285 l15 -29 78 84
c111 119 207 248 331 449 l108 173 -178 176 c-99 97 -360 353 -582 570 -239
234 -405 403 -408 418 -9 36 22 151 82 303 59 147 202 582 369 1115 59 187
140 436 182 553 92 260 93 252 -31 270 -105 15 -242 54 -317 90 l-57 27 -5
-90z"/>
<path d="M24546 24798 c-14 -35 -67 -160 -117 -278 -135 -319 -290 -690 -381
-910 -44 -107 -84 -199 -89 -204 -12 -13 -318 25 -549 69 -102 18 -241 43
-310 54 -69 12 -183 32 -255 46 -173 34 -244 44 -345 50 l-85 6 50 -21 c28
-12 95 -41 150 -65 106 -47 177 -62 705 -150 118 -20 307 -54 420 -75 113 -21
300 -53 415 -70 116 -17 229 -35 252 -39 l42 -8 17 56 c9 31 65 206 126 390
60 184 127 394 148 465 21 73 43 130 49 129 6 -2 11 3 11 11 0 7 34 117 75
245 41 127 75 235 75 240 0 12 -119 55 -253 91 -62 16 -115 30 -118 30 -4 0
-18 -28 -33 -62z"/>
<path d="M23098 24728 c-25 -5 -88 -31 -140 -56 l-93 -47 -43 -85 c-53 -107
-74 -192 -75 -301 0 -77 3 -91 33 -147 58 -109 161 -188 294 -227 82 -24 252
-17 319 13 58 26 140 101 174 160 79 135 85 331 14 470 -40 78 -96 129 -203
182 -92 46 -105 50 -166 49 -37 -1 -88 -6 -114 -11z m210 -78 c136 -60 218
-237 182 -391 -36 -155 -148 -277 -285 -314 -259 -70 -462 202 -361 484 14 41
26 83 26 93 0 12 7 18 24 18 16 0 32 11 46 30 26 36 97 79 159 97 59 16 150 9
209 -17z"/>
<path d="M30430 21647 c0 -34 38 -163 61 -209 28 -55 95 -126 142 -149 l38
-20 79 42 c93 50 93 46 -8 148 -73 74 -152 131 -249 180 l-63 31 0 -23z"/>
<path d="M34789 20790 c-138 -16 -288 -61 -554 -168 -155 -62 -343 -125 -405
-137 -23 -4 -98 5 -210 25 -138 26 -193 31 -270 28 l-96 -3 -263 -128 c-145
-70 -267 -127 -272 -127 -22 0 -4 -21 76 -89 l85 -73 158 70 c86 38 202 86
257 106 55 21 107 40 115 43 20 8 39 10 145 18 152 12 338 -33 555 -133 78
-36 96 -50 210 -169 69 -71 166 -182 216 -248 108 -142 312 -441 344 -505 65
-128 93 -270 114 -575 13 -190 15 -204 46 -270 17 -38 99 -225 182 -415 206
-475 248 -561 314 -648 1 -2 11 2 21 8 16 11 33 3 120 -54 55 -36 131 -80 168
-98 63 -29 72 -30 114 -21 25 6 117 27 205 46 87 20 160 38 163 41 11 11 -29
163 -55 207 l-28 48 57 115 c64 131 110 265 140 411 36 176 36 600 0 697 -4
12 -15 -33 -29 -129 -47 -320 -91 -402 -234 -440 -71 -18 -123 -16 -239 7
-105 22 -212 60 -292 105 -108 61 -309 264 -455 459 l-66 88 3 138 c4 218 -43
411 -156 641 -120 245 -296 434 -476 514 -67 29 -182 55 -246 55 -28 0 -51 4
-51 8 0 20 66 110 123 166 118 119 286 229 412 269 28 9 88 21 134 27 46 5
115 20 153 32 l69 22 -52 18 c-66 23 -153 29 -250 18z"/>
<path d="M10295 20040 c-196 -21 -340 -52 -387 -83 -43 -29 -142 -145 -301
-352 -72 -93 -194 -249 -272 -345 -77 -96 -148 -187 -158 -202 -9 -15 -99
-130 -200 -255 -204 -254 -307 -388 -307 -399 0 -11 333 4 575 25 121 11 321
27 445 36 124 9 242 21 263 27 54 16 83 56 112 156 31 102 146 465 320 1007
69 214 125 393 125 397 0 10 -8 10 -215 -12z m-324 -643 c55 -37 83 -118 84
-242 0 -122 -26 -213 -89 -307 -56 -84 -93 -108 -165 -108 -79 0 -113 23 -140
94 -71 190 -4 448 143 557 51 37 117 40 167 6z"/>
<path d="M32665 19749 c-38 -5 -185 -24 -325 -43 -140 -19 -291 -37 -335 -41
-44 -3 -162 -15 -262 -27 l-183 -21 0 -78 c0 -43 4 -80 9 -83 5 -4 25 -34 44
-69 138 -245 443 -373 745 -311 97 19 222 79 289 138 71 64 131 162 149 244
15 71 18 180 8 256 -8 52 -4 52 -139 35z m-255 -428 c0 -39 -38 -90 -85 -115
-32 -17 -58 -21 -130 -21 -85 0 -185 19 -185 35 0 4 25 25 55 46 79 54 173 83
268 84 l77 0 0 -29z"/>
<path d="M20074 19193 c2 -10 7 -92 11 -183 3 -91 8 -193 11 -228 l6 -63 111
-55 c138 -69 277 -152 339 -201 25 -21 74 -59 107 -86 l60 -47 138 -11 c76 -5
188 -14 248 -19 61 -6 116 -10 123 -10 10 0 3 19 -18 58 -133 235 -325 422
-618 599 -112 67 -493 263 -512 263 -6 0 -9 -8 -6 -17z"/>
<path d="M34540 19124 c-8 -2 -118 -15 -245 -29 -298 -32 -337 -40 -481 -91
-67 -23 -194 -61 -283 -83 -181 -45 -184 -47 -225 -90 -29 -30 -29 -32 -16
-72 8 -23 19 -47 25 -53 6 -6 31 -40 57 -76 235 -333 746 -442 1090 -234 195
119 271 339 196 569 -18 57 -83 166 -97 164 -3 -1 -13 -3 -21 -5z m-244 -487
c11 -11 -17 -74 -44 -100 -59 -57 -157 -72 -262 -41 l-54 16 34 29 c82 67 200
112 278 105 24 -2 45 -6 48 -9z"/>
<path d="M31430 18529 c-36 -60 -119 -132 -258 -228 -67 -46 -153 -111 -191
-145 -71 -64 -102 -86 -293 -209 -72 -46 -154 -112 -215 -169 -54 -52 -142
-127 -195 -166 -117 -87 -144 -119 -208 -243 l-49 -95 72 -70 c99 -96 180
-164 257 -213 69 -45 352 -191 369 -191 5 0 68 41 139 90 72 50 133 90 136 90
3 0 37 -47 76 -104 39 -57 86 -116 105 -130 l34 -26 39 67 c22 38 105 199 186
359 171 340 167 321 112 536 -96 375 -118 612 -71 771 14 48 15 64 5 88 -7 16
-15 29 -19 29 -3 0 -17 -19 -31 -41z"/>
<path d="M20833 18054 c6 -101 24 -152 65 -184 21 -17 40 -20 127 -20 178 0
240 36 270 158 10 42 14 77 9 82 -8 7 -146 24 -393 48 l-84 8 6 -92z"/>
<path d="M17910 18043 c-19 -10 -75 -56 -125 -103 -120 -114 -180 -142 -323
-148 -99 -4 -104 -4 -166 27 -61 30 -156 118 -156 144 0 13 -201 2 -355 -19
-208 -29 -370 -79 -498 -154 -73 -42 -167 -79 -255 -100 -53 -12 -54 -13 -48
-44 2 -17 15 -121 27 -231 12 -110 25 -203 28 -207 7 -8 196 25 477 83 l202
42 153 -128 c274 -229 501 -475 529 -573 10 -37 14 -102 6 -102 -2 0 -24 9
-49 19 -25 11 -171 67 -324 125 -246 93 -395 152 -525 210 l-37 16 -7 -35
c-14 -74 20 -129 119 -193 35 -23 101 -55 148 -71 46 -16 206 -76 354 -134
149 -57 295 -112 325 -122 87 -28 83 -17 78 -210 -5 -158 -8 -184 -52 -375
-144 -627 -209 -762 -624 -1279 -106 -134 -108 -122 22 -172 172 -67 398 -110
659 -125 64 -4 117 -11 117 -16 0 -6 -13 -89 -30 -186 -16 -98 -37 -238 -46
-312 -9 -74 -18 -137 -19 -139 -4 -4 -288 -28 -430 -36 -131 -8 -213 -27 -296
-71 -127 -67 -204 -155 -233 -268 -39 -148 -56 -423 -60 -931 -1 -187 -8 -657
-14 -1045 -24 -1435 -33 -2067 -38 -2555 -3 -275 -10 -819 -15 -1210 -13 -893
-6 -2875 10 -3035 14 -144 35 -253 68 -354 23 -67 32 -83 67 -108 86 -62 218
-116 340 -137 98 -18 293 -13 447 10 77 12 143 18 146 15 13 -13 24 -305 20
-511 -5 -222 -19 -328 -62 -470 -77 -253 -265 -505 -444 -593 l-75 -37 -291 1
c-187 0 -370 7 -515 18 -124 10 -281 19 -350 20 -69 0 -109 3 -90 6 22 3 -56
16 -205 33 -132 16 -240 29 -241 30 -1 1 23 91 52 199 176 658 298 1314 311
1683 6 162 1 215 -68 777 -20 167 -77 420 -113 508 -44 108 -76 218 -121 422
-61 276 -235 966 -262 1042 -14 39 -32 103 -39 141 -7 39 -15 84 -18 100 -11
58 -19 100 -22 110 -1 6 -5 28 -8 50 -4 23 -8 52 -11 65 -3 14 -7 48 -10 75
-3 28 -8 57 -10 65 -3 8 -7 35 -10 60 -3 25 -8 58 -11 73 -7 31 -10 54 -19
137 -4 30 -9 58 -11 61 -1 3 -6 29 -9 57 -3 28 -13 88 -21 134 -8 46 -17 99
-20 118 -2 19 -7 43 -10 52 -3 10 -7 28 -10 40 -2 13 -6 34 -9 48 -3 14 -8 41
-11 60 -3 19 -17 78 -31 130 -42 155 -62 270 -63 350 0 86 9 150 21 150 4 0
45 -32 91 -71 46 -39 94 -81 108 -93 14 -11 88 -75 164 -141 77 -66 155 -133
174 -149 l35 -30 -5 62 c-6 86 -38 127 -181 237 -130 99 -162 138 -232 280
-60 124 -107 271 -144 451 -38 190 -50 315 -58 589 -9 338 10 607 97 1360 54
468 63 571 85 1015 9 162 27 468 41 680 13 212 30 491 37 620 l12 235 138 6
c224 11 276 24 522 133 237 104 521 268 630 361 l30 26 -150 -5 c-82 -3 -215
-14 -295 -25 -422 -57 -530 -68 -530 -55 0 11 202 98 714 309 204 84 390 161
413 172 l41 18 -74 22 -75 22 -112 -35 c-470 -148 -949 -232 -1507 -264 -313
-17 -424 -38 -1065 -197 -372 -92 -464 -118 -440 -124 17 -4 154 -17 305 -29
356 -28 428 -42 804 -164 l99 -32 -73 -84 c-40 -47 -148 -166 -240 -265 -213
-230 -277 -302 -351 -398 -70 -89 -70 -89 73 -35 139 52 262 142 453 329 66
65 121 116 123 115 6 -7 -19 -717 -48 -1326 -41 -871 -50 -1143 -50 -1545 0
-667 40 -1200 129 -1712 23 -136 26 -173 19 -230 -5 -37 -13 -72 -18 -77 -5
-4 -25 5 -47 22 -21 16 -132 98 -248 182 -457 331 -639 487 -765 655 -242 322
-331 540 -469 1142 -113 495 -158 784 -270 1743 -34 283 -72 585 -86 670 -33
204 -75 413 -83 421 -4 4 -83 -6 -177 -22 -93 -16 -357 -56 -585 -89 -228 -33
-485 -76 -570 -95 -85 -18 -181 -39 -212 -45 -55 -11 -58 -13 -82 -63 -33 -64
-34 -154 -6 -292 27 -131 27 -130 -11 -108 -92 54 -218 200 -318 368 -30 50
-61 98 -69 107 -25 29 -159 51 -412 68 -91 6 -229 17 -307 25 -286 30 -781 75
-903 81 l-125 7 -35 -54 c-19 -30 -119 -137 -222 -239 l-188 -184 0 -86 c0
-48 3 -175 7 -284 l6 -197 243 -220 243 -221 -4 -435 c-2 -239 -6 -437 -9
-440 -3 -3 -101 89 -218 203 -117 115 -225 220 -240 232 l-26 24 0 -1063 -1
-1062 55 -84 c30 -45 82 -119 115 -164 58 -78 60 -82 49 -115 l-12 -34 -115 0
c-228 0 -544 -95 -883 -264 -69 -35 -152 -80 -185 -101 -63 -40 -281 -200
-289 -213 -2 -4 84 37 192 91 238 117 417 189 571 229 156 41 215 40 311 -2
41 -18 82 -40 91 -49 9 -9 44 -63 78 -120 l61 -105 52 2 53 2 -60 -25 c-33
-14 -125 -64 -205 -111 -224 -133 -536 -303 -631 -344 -235 -103 -836 -215
-1588 -295 -264 -28 -279 -31 -386 -80 -56 -26 -90 -35 -128 -35 -73 0 -339
25 -634 60 -138 17 -271 30 -296 30 l-45 0 -11 -62 c-16 -83 -25 -239 -17
-271 9 -37 53 -85 113 -124 51 -32 56 -33 237 -48 416 -34 1048 -96 1164 -115
116 -19 314 -60 613 -127 l127 -28 47 -82 c50 -87 46 -85 150 -99 150 -21 255
-72 633 -312 l132 -84 -32 -61 c-18 -34 -83 -137 -145 -229 -61 -93 -108 -168
-104 -168 15 0 165 72 251 121 47 26 104 53 128 59 40 10 44 9 62 -12 74 -89
127 -275 117 -416 -11 -156 -134 -469 -372 -947 -85 -171 -155 -317 -155 -325
0 -8 9 -21 20 -28 17 -10 27 -9 61 9 23 11 42 19 43 17 1 -2 12 -26 24 -55 36
-84 51 -169 58 -323 8 -172 -6 -318 -43 -435 -24 -77 -83 -198 -103 -210 -27
-17 4 -23 150 -27 89 -3 163 -8 166 -11 3 -3 -1 -31 -10 -61 -21 -72 -46 -89
-118 -84 -89 7 -250 -10 -343 -37 -178 -52 -355 -168 -436 -285 l-38 -55 -1
-112 0 -112 53 53 c130 129 513 271 768 283 110 6 117 5 138 -16 30 -30 26
-87 -9 -112 -15 -11 -74 -26 -150 -39 -352 -59 -567 -155 -680 -304 l-41 -55
10 -58 c6 -32 31 -98 56 -148 40 -81 51 -94 103 -127 156 -101 334 -156 463
-144 207 19 481 145 641 295 140 131 214 258 262 450 45 178 37 311 -49 916
-60 420 -97 568 -182 740 -57 113 -118 197 -196 271 -65 62 -83 73 -170 103
l-96 35 21 35 c12 20 83 131 159 246 75 116 158 248 185 295 26 47 94 164 150
260 134 229 174 307 215 414 l33 89 191 -6 c104 -3 260 -12 345 -21 307 -31
779 -76 965 -91 105 -9 251 -25 325 -35 74 -11 142 -20 150 -20 9 0 38 35 65
77 79 122 154 219 260 336 81 88 100 105 106 90 3 -10 12 -99 18 -198 12 -187
24 -286 42 -343 11 -33 12 -34 56 -27 60 9 174 47 287 95 106 45 233 71 618
125 478 67 2483 356 2778 399 408 61 379 58 385 33 5 -22 35 -243 55 -392 30
-237 112 -1098 121 -1270 11 -223 -4 -1513 -22 -1865 -24 -491 -74 -770 -204
-1160 -36 -107 -65 -205 -65 -219 l0 -24 198 8 c607 24 601 24 777 -11 183
-36 487 -114 685 -174 132 -41 136 -42 210 -31 41 6 113 16 160 22 137 17 230
39 315 74 245 101 986 460 1035 502 29 24 30 28 25 77 -9 72 -51 388 -81 599
l-25 179 153 157 c286 292 458 551 543 817 26 81 28 84 64 94 107 28 687 153
1231 264 1295 263 1918 411 2188 520 367 148 674 397 889 721 101 151 191 315
232 420 63 161 96 312 146 670 l6 39 -108 -105 c-186 -180 -378 -338 -618
-509 l-130 -92 -17 23 c-144 199 -428 623 -421 629 4 5 91 70 193 146 358 265
678 537 806 684 104 120 299 368 361 462 60 88 63 115 72 643 4 237 8 395 9
352 l2 -78 182 -267 c100 -147 247 -363 327 -481 l146 -214 7 669 c3 368 11
725 16 794 5 69 9 126 8 127 0 0 -73 -10 -161 -23 -88 -13 -194 -23 -236 -24
-72 0 -76 1 -106 33 -47 48 -37 78 35 110 74 33 137 44 307 57 176 14 175 13
175 54 0 68 74 416 106 500 5 14 2 15 -17 7 -13 -5 -116 -30 -229 -55 -275
-63 -394 -100 -454 -143 -26 -19 -45 -29 -41 -23 5 9 -1 10 -21 6 -46 -9 -243
-26 -311 -26 l-62 0 -7 46 c-3 25 -3 111 1 191 7 142 6 145 -16 169 l-23 25
-13 -53 c-6 -29 -9 -76 -6 -104 3 -33 1 -54 -6 -58 -6 -4 -8 -18 -5 -31 3 -12
1 -26 -5 -29 -5 -4 -8 -13 -5 -20 3 -8 0 -17 -5 -21 -6 -3 -9 -11 -6 -16 4 -5
1 -9 -5 -9 -6 0 -9 -4 -5 -9 3 -5 -2 -17 -11 -25 -8 -9 -13 -16 -10 -16 3 0
-15 -20 -40 -45 -25 -25 -49 -43 -55 -40 -5 4 -9 1 -9 -5 0 -7 -7 -10 -15 -7
-8 4 -17 2 -21 -4 -3 -6 -12 -8 -20 -5 -7 3 -16 1 -20 -5 -3 -5 -14 -7 -25 -4
-11 4 -19 2 -19 -5 0 -8 -9 -10 -24 -6 -14 3 -28 1 -31 -5 -4 -6 -18 -8 -30
-5 -13 3 -27 1 -30 -5 -4 -6 -18 -8 -30 -5 -13 3 -27 1 -30 -5 -4 -6 -18 -8
-30 -5 -13 3 -27 1 -31 -5 -3 -6 -15 -9 -25 -6 -10 3 -22 1 -25 -4 -3 -6 -14
-7 -25 -4 -11 4 -19 2 -19 -5 0 -7 -8 -9 -20 -5 -12 4 -20 2 -20 -5 0 -7 -7
-10 -15 -6 -8 3 -15 1 -15 -5 0 -6 -7 -9 -15 -5 -8 3 -15 1 -15 -5 0 -6 -7 -9
-15 -6 -8 4 -17 2 -21 -4 -3 -6 -12 -8 -20 -5 -8 3 -14 0 -14 -5 0 -6 -9 -9
-20 -6 -11 3 -23 1 -26 -5 -3 -5 -13 -7 -21 -4 -9 4 -22 1 -29 -5 -7 -6 -18
-8 -24 -4 -6 4 -17 1 -25 -5 -8 -7 -22 -9 -31 -6 -9 4 -23 1 -30 -5 -8 -6 -25
-8 -38 -5 -14 3 -28 1 -32 -5 -3 -6 -19 -9 -35 -5 -15 3 -31 1 -35 -5 -3 -6
-19 -8 -35 -5 -15 3 -31 1 -35 -5 -3 -6 -17 -8 -29 -5 -13 3 -27 1 -30 -5 -4
-6 -18 -8 -30 -5 -13 3 -27 1 -31 -5 -3 -6 -15 -9 -25 -6 -10 3 -22 1 -25 -4
-3 -6 -14 -7 -25 -4 -11 4 -19 2 -19 -5 0 -7 -8 -10 -20 -7 -11 3 -20 1 -20
-5 0 -6 -7 -8 -15 -5 -8 4 -17 2 -21 -4 -3 -6 -12 -8 -20 -5 -8 3 -14 1 -14
-5 0 -6 -7 -9 -15 -5 -8 3 -15 1 -15 -5 0 -6 -7 -9 -15 -5 -8 3 -15 1 -15 -5
0 -6 -4 -8 -9 -5 -5 4 -11 1 -13 -4 -2 -6 -13 -12 -26 -13 -12 0 -22 -5 -22
-10 0 -4 -4 -5 -10 -2 -5 3 -10 1 -10 -5 0 -6 -4 -8 -10 -5 -5 3 -10 1 -10 -5
0 -7 -7 -10 -15 -6 -8 3 -15 1 -15 -5 0 -6 -7 -9 -15 -5 -8 3 -15 1 -15 -5 0
-6 -7 -9 -15 -5 -8 3 -15 1 -15 -5 0 -6 -7 -9 -15 -5 -8 3 -15 1 -15 -5 0 -6
-7 -9 -15 -6 -8 4 -17 2 -21 -4 -3 -6 -12 -8 -20 -5 -7 3 -16 1 -19 -4 -3 -5
-12 -7 -20 -3 -8 3 -15 0 -15 -7 0 -7 -7 -10 -16 -6 -9 4 -23 1 -30 -5 -7 -6
-18 -8 -23 -5 -5 4 -13 1 -16 -5 -4 -5 -13 -8 -21 -5 -7 3 -16 1 -20 -5 -3 -6
-12 -8 -20 -5 -7 3 -16 1 -20 -5 -3 -6 -12 -8 -20 -5 -7 3 -16 1 -20 -5 -3 -6
-12 -8 -20 -5 -8 3 -14 0 -14 -5 0 -6 -9 -9 -20 -6 -11 3 -20 1 -20 -5 0 -6
-7 -8 -15 -4 -8 3 -15 1 -15 -5 0 -6 -7 -9 -15 -5 -8 3 -15 1 -15 -5 0 -6 -7
-9 -15 -5 -8 3 -15 1 -15 -5 0 -6 -7 -9 -15 -5 -8 3 -15 1 -15 -5 0 -6 -4 -8
-9 -4 -5 3 -12 1 -16 -5 -4 -6 -11 -8 -16 -5 -5 4 -9 1 -9 -5 0 -6 -4 -8 -10
-5 -5 3 -10 1 -10 -5 0 -6 -4 -8 -10 -5 -5 3 -10 1 -10 -5 0 -6 -4 -8 -10 -5
-5 3 -10 1 -10 -5 0 -6 -4 -8 -10 -5 -5 3 -10 1 -10 -5 0 -6 -4 -9 -9 -6 -5 3
-49 -34 -97 -83 -112 -111 -174 -143 -289 -149 -132 -7 -220 35 -362 171 l-72
69 -16 -38 c-9 -21 -21 -58 -27 -81 -6 -24 -14 -43 -18 -43 -4 0 -33 32 -65
71 l-57 71 -34 -51 c-19 -28 -44 -57 -57 -65 -12 -8 -80 -26 -152 -41 -159
-32 -345 -82 -528 -142 -76 -25 -141 -43 -144 -40 -3 4 -8 38 -11 77 -2 38 -7
70 -11 70 -8 0 -70 -212 -81 -280 -5 -30 -12 -143 -15 -250 -3 -107 -10 -285
-16 -395 -8 -158 -8 -226 3 -326 14 -135 15 -125 -32 -839 -12 -173 -28 -369
-36 -435 -9 -66 -18 -145 -21 -175 -2 -30 -6 -56 -7 -58 -2 -1 -18 50 -35 115
-47 172 -42 170 -80 41 -19 -62 -37 -116 -41 -121 -3 -4 -17 48 -30 115 l-24
123 -14 -225 c-7 -124 -17 -229 -21 -233 -4 -4 -16 49 -26 118 l-18 125 -33 6
c-39 7 -320 2 -328 -7 -3 -2 -13 -51 -22 -107 l-17 -102 -108 0 c-128 0 -250
-15 -299 -38 -48 -21 -208 -185 -248 -254 l-33 -56 -9 -238 c-15 -376 -34
-364 -50 31 -5 132 -13 263 -17 290 l-8 50 -5 -65 c-3 -36 -7 156 -9 425 -1
270 -3 569 -4 665 -1 96 0 346 1 555 1 209 -2 828 -6 1375 -4 547 -5 1684 -2
2525 5 1455 6 1533 24 1585 51 152 113 223 275 315 l115 65 155 0 c86 0 278
-7 426 -16 214 -12 300 -13 415 -4 150 11 359 35 420 49 l35 8 -30 6 c-16 3
-65 9 -107 12 -73 6 -92 15 -68 30 25 15 5 25 -48 25 l-59 0 -6 102 c-7 118 1
244 17 257 6 4 32 16 58 26 25 9 58 29 73 44 23 25 27 39 35 142 5 63 10 153
10 201 0 95 16 153 99 370 44 116 68 233 57 289 -5 29 -20 45 -89 96 -46 34
-114 81 -152 104 -39 23 -73 46 -76 51 -9 14 -125 -10 -201 -42 -82 -35 -159
-115 -230 -240 -49 -86 -108 -474 -108 -708 0 -211 2 -218 61 -244 l49 -20 0
-117 c0 -64 3 -145 6 -181 l6 -66 -223 -26 c-123 -14 -225 -25 -227 -23 -2 1
4 38 12 81 58 308 152 623 312 1055 l56 153 -40 126 c-64 197 -85 314 -80 445
4 98 8 118 35 176 34 74 112 158 198 216 64 42 62 32 40 228 -38 319 -84 529
-176 803 -69 204 -109 366 -109 436 0 67 -94 221 -175 289 -30 24 -36 39 -59
140 -15 61 -34 153 -44 202 -16 83 -20 90 -42 93 -14 1 -41 -6 -60 -15z m5440
-8017 c0 -2 -8 -10 -17 -17 -16 -13 -17 -12 -4 4 13 16 21 21 21 13z m467
-218 c-3 -8 -6 -5 -6 6 -1 11 2 17 5 13 3 -3 4 -12 1 -19z m-11941 -246 c20
-84 35 -154 33 -156 -13 -11 -272 -147 -274 -144 -5 6 -77 349 -74 353 2 1 63
37 134 79 l130 76 7 -28 c4 -15 24 -96 44 -180z m11951 186 c-3 -8 -6 -5 -6 6
-1 11 2 17 5 13 3 -3 4 -12 1 -19z m-12429 -130 c7 -40 35 -183 63 -316 29
-135 47 -247 43 -252 -10 -8 -339 -194 -559 -315 l-140 -76 -190 -20 c-104
-11 -226 -24 -270 -29 -43 -6 -82 -7 -86 -2 -9 8 -114 701 -108 707 3 2 130
22 284 45 389 57 384 56 581 162 173 94 327 167 354 167 12 1 19 -18 28 -71z
m12439 -50 c-2 -24 -4 -7 -4 37 0 44 2 63 4 43 2 -21 2 -57 0 -80z m-70 -25
c-3 -10 -5 -2 -5 17 0 19 2 27 5 18 2 -10 2 -26 0 -35z m10 -115 c-3 -7 -5 -2
-5 12 0 14 2 19 5 13 2 -7 2 -19 0 -25z m50 -25 c-3 -10 -5 -2 -5 17 0 19 2
27 5 18 2 -10 2 -26 0 -35z m-670 11 c-3 -3 -12 -4 -19 -1 -8 3 -5 6 6 6 11 1
17 -2 13 -5z m630 -76 c-3 -7 -5 -2 -5 12 0 14 2 19 5 13 2 -7 2 -19 0 -25z
m30 -55 c-3 -10 -5 -2 -5 17 0 19 2 27 5 18 2 -10 2 -26 0 -35z m-20 -15 c-3
-8 -6 -5 -6 6 -1 11 2 17 5 13 3 -3 4 -12 1 -19z m-15260 -70 c-3 -8 -6 -5 -6
6 -1 11 2 17 5 13 3 -3 4 -12 1 -19z m13190 -104 c-3 -3 -12 -4 -19 -1 -8 3
-5 6 6 6 11 1 17 -2 13 -5z m-12820 -159 c378 -197 638 -448 750 -723 41 -99
41 -94 23 -240 l-14 -113 -52 -63 c-57 -69 -158 -159 -241 -214 -29 -19 -53
-40 -53 -46 0 -13 36 -67 112 -167 63 -82 94 -143 104 -206 l6 -40 -63 -45
c-35 -25 -116 -74 -179 -109 -111 -62 -117 -64 -187 -64 -88 0 -95 5 -156 125
-24 47 -69 127 -101 178 -50 81 -61 93 -80 88 -155 -44 -456 -62 -606 -36
-101 17 -280 78 -480 163 -472 200 -558 226 -795 247 -136 12 -253 28 -420 60
-55 10 -118 21 -140 25 -69 10 -509 84 -542 91 -18 4 -30 10 -27 15 3 5 -21
10 -53 11 -52 1 -49 2 27 8 47 4 166 21 265 38 181 32 326 52 840 117 369 47
409 54 761 141 165 41 308 74 316 74 20 0 35 -64 44 -185 4 -47 9 -85 11 -85
16 0 243 122 308 165 147 98 290 241 353 352 45 80 87 217 107 348 21 141 24
155 32 155 3 0 62 -29 130 -65z m12210 49 c-3 -3 -12 -4 -19 -1 -8 3 -5 6 6 6
11 1 17 -2 13 -5z m-114 -11 c-13 -2 -33 -2 -45 0 -13 2 -3 4 22 4 25 0 35 -2
23 -4z m-30 -80 c-13 -2 -35 -2 -50 0 -16 2 -5 4 22 4 28 0 40 -2 28 -4z
m-185 -10 c-10 -2 -28 -2 -40 0 -13 2 -5 4 17 4 22 1 32 -1 23 -4z m-160 -10
c-10 -2 -28 -2 -40 0 -13 2 -5 4 17 4 22 1 32 -1 23 -4z m-155 -10 c-13 -2
-33 -2 -45 0 -13 2 -3 4 22 4 25 0 35 -2 23 -4z m-596 -209 c-3 -3 -12 -4 -19
-1 -8 3 -5 6 6 6 11 1 17 -2 13 -5z m-80 -10 c-3 -3 -12 -4 -19 -1 -8 3 -5 6
6 6 11 1 17 -2 13 -5z m-825 -191 c-3 -16 -7 -22 -10 -15 -4 13 4 42 11 42 2
0 2 -12 -1 -27z m185 21 c-3 -3 -12 -4 -19 -1 -8 3 -5 6 6 6 11 1 17 -2 13 -5z
m-90 -10 c-3 -3 -12 -4 -19 -1 -8 3 -5 6 6 6 11 1 17 -2 13 -5z m-110 -406
c-2 -18 -4 -4 -4 32 0 36 2 50 4 33 2 -18 2 -48 0 -65z m-10 -140 c-3 -7 -5
-2 -5 12 0 14 2 19 5 13 2 -7 2 -19 0 -25z m-13480 -24 c-3 -3 -12 -4 -19 -1
-8 3 -5 6 6 6 11 1 17 -2 13 -5z m106 -11 c-7 -2 -21 -2 -30 0 -10 3 -4 5 12
5 17 0 24 -2 18 -5z m13364 -45 c-3 -8 -6 -5 -6 6 -1 11 2 17 5 13 3 -3 4 -12
1 -19z m-110 -1520 c-2 -13 -4 -5 -4 17 -1 22 1 32 4 23 2 -10 2 -28 0 -40z
m10 -271 c-2 -23 -3 -1 -3 48 0 50 1 68 3 42 2 -26 2 -67 0 -90z m-10 -229
c-2 -13 -4 -3 -4 22 0 25 2 35 4 23 2 -13 2 -33 0 -45z m-10 -135 c-3 -10 -5
-4 -5 12 0 17 2 24 5 18 2 -7 2 -21 0 -30z m-10 -110 c-3 -10 -5 -4 -5 12 0
17 2 24 5 18 2 -7 2 -21 0 -30z m-10 -105 c-3 -7 -5 -2 -5 12 0 14 2 19 5 13
2 -7 2 -19 0 -25z m3730 -4 c-3 -3 -12 -4 -19 -1 -8 3 -5 6 6 6 11 1 17 -2 13
-5z m-3740 -91 c-3 -10 -5 -4 -5 12 0 17 2 24 5 18 2 -7 2 -21 0 -30z m-10
-90 c-3 -10 -5 -4 -5 12 0 17 2 24 5 18 2 -7 2 -21 0 -30z m-70 -255 c-7 -269
-20 -368 -82 -583 -58 -203 -153 -435 -179 -435 -8 0 -111 -31 -228 -68 -198
-63 -218 -68 -285 -64 -40 2 -73 7 -73 10 0 4 42 30 93 59 214 119 348 227
423 340 106 160 288 695 320 941 4 28 9 52 12 52 3 0 2 -114 -1 -252z m60 160
c-3 -7 -5 -2 -5 12 0 14 2 19 5 13 2 -7 2 -19 0 -25z m-10 -90 c-3 -7 -5 -2
-5 12 0 14 2 19 5 13 2 -7 2 -19 0 -25z m-1410 -365 c-1 -43 -3 -8 -3 77 0 85
2 120 3 78 2 -43 2 -113 0 -155z m1940 1 c-3 -3 -12 -4 -19 -1 -8 3 -5 6 6 6
11 1 17 -2 13 -5z m-130 -20 c-3 -3 -12 -4 -19 -1 -8 3 -5 6 6 6 11 1 17 -2
13 -5z m-70 -10 c-3 -3 -12 -4 -19 -1 -8 3 -5 6 6 6 11 1 17 -2 13 -5z m-1541
-852 c-21 -2 -42 0 -47 5 -4 4 13 6 39 3 l47 -5 -39 -3z m377 1 c-7 -2 -19 -2
-25 0 -7 3 -2 5 12 5 14 0 19 -2 13 -5z m-120 -10 c-29 -2 -77 -2 -105 0 -29
2 -6 3 52 3 58 0 81 -1 53 -3z m-2230 -1620 c-13 -2 -33 -2 -45 0 -13 2 -3 4
22 4 25 0 35 -2 23 -4z m-191 -14 c-22 -7 -43 -7 -60 0 -23 8 -17 9 33 9 55 0
57 -1 27 -9z m55 -15 c-3 -3 -12 -4 -19 -1 -8 3 -5 6 6 6 11 1 17 -2 13 -5z
m76 -11 c-7 -2 -19 -2 -25 0 -7 3 -2 5 12 5 14 0 19 -2 13 -5z m64 -9 c-3 -3
-12 -4 -19 -1 -8 3 -5 6 6 6 11 1 17 -2 13 -5z m120 -20 c-3 -3 -12 -4 -19 -1
-8 3 -5 6 6 6 11 1 17 -2 13 -5z m148 -34 c-3 -5 -11 -10 -16 -10 -6 0 -7 5
-4 10 3 6 11 10 16 10 6 0 7 -4 4 -10z m-158 -126 c-3 -3 -12 -4 -19 -1 -8 3
-5 6 6 6 11 1 17 -2 13 -5z"/>
<path d="M8827 8822 c-13 -159 -77 -335 -172 -467 -117 -164 -376 -349 -630
-448 -131 -52 -379 -121 -583 -162 -171 -35 -237 -53 -201 -54 57 -3 397 -124
606 -217 222 -99 317 -119 553 -118 143 0 178 4 302 35 l36 9 -34 57 c-19 31
-34 62 -34 68 0 21 270 170 406 224 l52 20 55 -58 c44 -46 55 -63 50 -81 -6
-22 -3 -21 65 15 87 45 193 140 243 217 20 32 45 87 55 124 15 58 16 76 6 135
-16 94 -51 175 -116 272 -71 106 -136 172 -259 263 -92 69 -260 175 -354 222
l-40 21 -6 -77z"/>
<path d="M8950 7579 c-78 -40 -140 -77 -138 -83 2 -7 61 -113 133 -235 l130
-223 51 5 c30 3 94 25 160 55 102 46 109 52 112 81 4 41 -24 102 -99 214 -78
116 -187 257 -199 257 -5 0 -73 -32 -150 -71z"/>
<path d="M9244 17990 c-40 -16 -628 -159 -841 -204 -294 -63 -681 -135 -1054
-197 l-316 -52 35 -88 35 -88 41 25 c155 96 537 209 891 264 260 40 489 37
680 -10 l80 -19 75 45 c41 25 136 88 209 140 153 109 164 114 231 114 l50 0
-44 40 c-24 22 -45 40 -47 39 -2 0 -14 -4 -25 -9z"/>
<path d="M14836 17933 c35 -344 65 -655 70 -725 7 -86 7 -88 33 -88 54 0 676
32 679 35 2 2 -8 75 -22 162 -14 87 -30 196 -36 243 -15 116 -19 123 -75 138
-62 16 -196 74 -425 182 -247 116 -230 112 -224 53z"/>
<path d="M13260 17874 c-104 -19 -497 -74 -530 -74 -6 0 -10 -37 -10 -82 0
-94 28 -692 36 -754 l5 -42 72 19 c182 47 522 109 604 109 50 0 59 7 56 43 -2
18 -17 187 -33 377 -39 440 -37 430 -58 429 -9 -1 -73 -12 -142 -25z"/>
<path d="M34972 17636 c-72 -78 -126 -207 -157 -375 -8 -46 -15 -89 -15 -96 0
-7 33 -27 73 -44 l72 -31 136 140 137 141 -97 154 c-53 85 -99 155 -102 155
-4 0 -25 -20 -47 -44z"/>
<path d="M12186 17641 l-89 -25 6 -201 c6 -188 42 -673 51 -682 4 -4 206 34
212 40 2 2 -3 45 -11 97 -16 100 -49 474 -61 673 -4 65 -10 119 -13 121 -3 1
-46 -9 -95 -23z"/>
<path d="M20132 17223 c-15 -3 -22 -10 -18 -19 3 -8 13 -53 23 -101 26 -130
23 -362 -6 -467 -11 -44 -20 -80 -19 -81 2 -1 32 0 67 3 l64 5 -6 211 c-3 121
-12 249 -21 301 -9 50 -19 105 -22 123 -5 33 -10 35 -62 25z"/>
<path d="M19033 17183 l-293 -3 0 -33 c0 -40 68 -599 74 -604 2 -2 136 -7 297
-10 285 -6 292 -6 284 13 -57 137 -73 213 -73 341 -1 70 6 134 22 203 l23 100
-21 -2 c-12 -2 -153 -4 -313 -5z"/>
<path d="M21717 17056 c-81 -81 -111 -203 -84 -345 9 -46 24 -92 33 -102 32
-35 123 -60 272 -73 144 -13 144 -14 177 -47 18 -19 292 -325 609 -682 509
-572 989 -1106 992 -1103 1 0 -2 71 -6 156 -10 221 -10 219 -218 437 -218 229
-371 395 -721 783 -156 173 -303 335 -325 359 l-41 43 115 -5 c63 -3 123 -8
132 -12 10 -4 -17 28 -60 72 -42 43 -94 107 -115 143 -41 72 -92 217 -102 295
-13 101 2 91 -147 98 -73 4 -210 10 -304 13 l-170 7 -37 -37z"/>
<path d="M3725 16978 c18 -57 49 -149 69 -205 24 -71 31 -103 23 -103 -7 0
-85 20 -174 45 -349 97 -463 109 -723 81 -85 -10 -158 -21 -163 -25 -4 -4 21
-30 55 -58 87 -71 206 -193 188 -193 -8 0 -40 7 -70 15 -30 8 -59 15 -64 15
-12 0 22 -37 56 -61 27 -20 27 -20 77 6 81 40 96 28 37 -31 -25 -25 -43 -34
-67 -34 -50 0 -117 37 -146 81 -14 22 -38 43 -52 47 -14 4 -129 7 -256 7 -240
0 -280 -4 -553 -61 -199 -41 -413 -143 -611 -292 -104 -78 -321 -261 -321
-271 0 -8 152 -105 268 -171 l93 -53 -33 -22 c-18 -12 -98 -62 -178 -110 -80
-49 -147 -91 -150 -93 -3 -2 17 -23 43 -46 l48 -42 -74 -69 c-41 -39 -111 -99
-157 -135 -83 -66 -170 -152 -170 -168 0 -5 80 -9 177 -9 98 0 191 -4 208 -10
28 -9 27 -10 -41 -28 l-72 -18 -11 -54 c-7 -29 -16 -53 -21 -53 -5 0 -45 -23
-89 -50 -44 -28 -129 -71 -187 -97 -115 -50 -180 -93 -204 -136 -14 -24 -13
-28 5 -42 29 -22 254 -131 300 -145 22 -7 66 -22 97 -32 l58 -20 -25 -43 -25
-42 117 30 c111 28 132 30 348 34 l231 5 17 85 c37 180 157 429 355 741 l130
203 -19 36 c-23 46 -25 131 -5 266 15 97 12 165 -8 180 -13 10 134 0 219 -14
32 -6 129 -33 215 -60 85 -28 191 -55 235 -61 l80 -11 140 46 c173 56 500 151
578 167 32 6 70 9 83 6 13 -4 77 -57 143 -119 191 -182 282 -239 484 -301 64
-20 170 -52 234 -72 155 -48 207 -75 357 -189 138 -105 135 -105 192 -43 39
41 86 115 150 237 28 54 73 120 107 157 l59 64 -26 56 c-14 30 -51 127 -81
214 -96 279 -139 353 -287 496 -161 156 -345 264 -524 307 -131 32 -214 72
-409 194 -134 84 -293 173 -309 173 -2 0 11 -46 29 -102z m895 -853 c120 -93
223 -229 290 -385 56 -134 94 -327 88 -455 l-3 -70 -26 41 c-15 22 -62 105
-105 185 -42 79 -98 176 -124 214 -51 75 -142 167 -201 203 -49 30 -71 85 -77
192 l-4 85 43 17 c24 9 48 17 52 17 5 1 35 -19 67 -44z m-2772 -292 c-10 -2
-28 -2 -40 0 -13 2 -5 4 17 4 22 1 32 -1 23 -4z m-111 -9 c-3 -3 -12 -4 -19
-1 -8 3 -5 6 6 6 11 1 17 -2 13 -5z m-60 -10 c-3 -3 -12 -4 -19 -1 -8 3 -5 6
6 6 11 1 17 -2 13 -5z m-50 -10 c-3 -3 -12 -4 -19 -1 -8 3 -5 6 6 6 11 1 17
-2 13 -5z m-135 -31 c-10 -4 -2 -17 25 -47 l38 -41 -42 39 c-40 37 -47 57 -20
55 8 0 7 -2 -1 -6z m159 -180 c13 -16 12 -17 -3 -4 -10 7 -18 15 -18 17 0 8 8
3 21 -13z m46 -120 c-3 -10 -5 -4 -5 12 0 17 2 24 5 18 2 -7 2 -21 0 -30z
m-67 -106 c0 -2 -10 -12 -22 -23 l-23 -19 19 23 c18 21 26 27 26 19z m-50 -41
c0 -2 -8 -10 -17 -17 -16 -13 -17 -12 -4 4 13 16 21 21 21 13z m-57 -56 c-3
-12 -8 -19 -11 -16 -5 6 5 36 12 36 2 0 2 -9 -1 -20z m-16 -282 c-2 -35 -3 -7
-3 62 0 69 1 97 3 63 2 -35 2 -91 0 -125z m10 -331 c-2 -23 -3 -1 -3 48 0 50
1 68 3 42 2 -26 2 -67 0 -90z m0 -179 c-3 -7 -5 -2 -5 12 0 14 2 19 5 13 2 -7
2 -19 0 -25z"/>
<path d="M36990 16974 c8 -10 50 -61 94 -114 262 -315 388 -521 467 -763 22
-64 39 -123 39 -130 0 -7 -23 30 -50 82 -27 51 -69 119 -92 151 -78 105 -181
230 -189 230 -5 0 -82 -42 -171 -94 -125 -72 -163 -98 -161 -112 1 -11 9 -77
19 -147 9 -71 14 -130 11 -133 -2 -3 -28 54 -57 126 -29 72 -56 130 -61 128
-26 -9 -241 -191 -351 -297 -143 -138 -266 -274 -410 -456 -99 -125 -318 -421
-318 -429 0 -11 190 -65 269 -77 222 -32 449 37 675 204 125 94 166 96 383 23
l130 -44 82 255 83 255 51 -7 c85 -12 150 -32 312 -95 85 -33 157 -60 161 -60
4 0 4 55 1 123 -9 210 -61 347 -221 587 -99 149 -216 363 -204 376 11 11 512
-40 606 -61 23 -6 23 -4 -10 42 -49 71 -225 245 -288 286 -43 28 -72 38 -135
47 -44 6 -179 31 -300 55 -121 24 -247 46 -280 50 -33 4 -69 9 -80 12 -18 5
-19 4 -5 -13z"/>
<path d="M14391 16910 l-34 -29 6 -118 c8 -169 45 -329 148 -638 96 -289 168
-452 219 -500 26 -24 31 -26 27 -10 -4 11 -40 155 -81 320 -41 165 -98 379
-126 475 -61 207 -74 322 -45 384 10 20 43 58 74 83 31 26 60 51 66 55 5 4
-43 8 -105 8 -112 -1 -116 -2 -149 -30z"/>
<path d="M23417 16236 c40 -47 173 -198 190 -216 16 -16 16 -18 -3 110 -6 44
-18 52 -159 114 l-56 25 28 -33z"/>
<path d="M32530 15684 c-52 -7 -152 -23 -222 -35 l-126 -22 -62 -176 c-34 -97
-88 -252 -121 -344 -32 -92 -72 -217 -88 -278 l-30 -110 27 5 c15 3 52 8 82
11 64 7 228 34 250 40 11 4 20 29 28 77 39 223 162 473 347 702 44 54 88 110
98 123 l19 23 -54 -1 c-29 -1 -96 -7 -148 -15z"/>
<path d="M11272 15617 l-94 -22 -45 -60 c-135 -179 -177 -390 -178 -898 0
-328 -4 -310 66 -321 29 -5 40 -12 43 -29 5 -20 26 -383 26 -436 0 -21 3 -21
190 -21 l190 0 0 205 0 206 50 71 50 71 0 110 c0 87 -6 131 -27 216 -26 97
-28 120 -26 276 1 102 9 232 21 325 l20 155 -86 88 c-48 48 -91 87 -97 86 -5
0 -52 -11 -103 -22z"/>
<path d="M34112 15323 c-140 -209 -231 -361 -307 -512 -49 -98 -125 -271 -125
-285 0 -3 24 3 53 13 75 26 151 33 237 22 41 -5 76 -8 79 -6 2 2 16 79 32 170
47 270 84 395 155 515 38 65 106 138 164 176 l41 28 -88 27 c-48 15 -96 28
-105 28 -11 1 -58 -60 -136 -176z"/>
<path d="M20584 15394 c3 -11 26 -109 51 -218 65 -284 78 -374 73 -524 -3
-116 -6 -132 -32 -182 -17 -32 -67 -95 -122 -151 l-94 -95 0 -52 c0 -31 4 -52
11 -52 6 0 48 11 93 25 110 33 218 55 274 55 26 0 63 3 83 6 36 6 36 7 47 73
39 230 16 458 -75 744 -43 138 -59 170 -117 233 -55 62 -201 166 -192 138z"/>
<path d="M2939 15293 c-106 -9 -216 -170 -188 -275 5 -20 18 -46 28 -59 l18
-22 124 90 c108 78 140 95 244 133 66 24 140 52 165 63 l45 19 -28 14 c-69 37
-230 51 -408 37z"/>
<path d="M3515 14785 c-50 -18 -65 -38 -65 -87 0 -53 21 -98 63 -135 48 -42
96 -56 177 -51 53 3 76 9 110 32 40 26 42 29 35 64 -27 143 -179 227 -320 177z"/>
<path d="M28230 14574 c-8 -2 -40 -5 -70 -6 l-55 -3 2 -388 c1 -283 5 -424 17
-525 9 -75 25 -240 36 -367 11 -126 45 -468 75 -760 64 -612 74 -666 164 -849
92 -189 87 -191 94 45 8 230 22 426 72 968 48 523 64 750 72 1014 l6 227 -34
0 c-51 0 -110 19 -146 46 -43 33 -139 225 -158 319 -22 106 -20 135 20 263 7
21 5 22 -36 21 -24 -1 -51 -3 -59 -5z"/>
<path d="M33476 14249 c-181 -48 -316 -62 -521 -56 -99 3 -211 12 -250 20 -38
8 -71 14 -72 13 -1 -1 -5 -39 -9 -84 l-7 -82 59 26 c115 51 199 49 279 -6 76
-52 87 -115 59 -345 l-6 -50 89 -110 88 -110 110 -5 c101 -5 115 -9 173 -40
35 -18 79 -52 99 -74 l35 -41 -7 -83 c-3 -45 -3 -102 0 -126 l7 -44 96 -6
c204 -14 340 -27 432 -43 86 -14 260 -40 260 -39 0 1 -24 116 -54 256 -51 238
-59 265 -119 400 -68 151 -125 308 -147 398 -12 50 -14 53 -39 47 -69 -14
-180 -23 -216 -16 -87 17 -125 50 -179 159 -20 39 -40 71 -44 71 -4 -1 -56
-15 -116 -30z"/>
<path d="M670 14247 c-3 -3 -23 -8 -46 -11 -74 -9 -159 -35 -252 -79 l-92 -43
137 -28 c76 -16 145 -33 153 -37 8 -4 42 -10 75 -14 100 -11 109 -13 135 -19
21 -5 38 6 103 68 l78 74 -34 26 c-18 14 -53 33 -78 41 -45 17 -170 31 -179
22z"/>
<path d="M23540 14218 c-113 -9 -224 -17 -247 -17 -41 -1 -42 -1 -63 -58 -87
-228 -152 -464 -166 -603 l-6 -66 81 -163 c295 -587 363 -796 450 -1364 25
-167 28 -177 43 -160 32 36 58 303 73 758 15 435 25 599 52 820 13 106 14 186
8 440 -4 171 -10 337 -13 370 l-7 60 -205 -17z"/>
<path d="M4554 14146 c-76 -56 -214 -203 -320 -341 -71 -92 -45 -73 99 69
l152 151 3 -70 c5 -99 -14 -214 -54 -335 -69 -207 -156 -331 -389 -558 -191
-185 -300 -271 -411 -326 -97 -48 -152 -54 -267 -28 l-88 19 -24 -31 c-13 -16
-22 -33 -19 -38 6 -10 369 -128 519 -169 66 -17 180 -58 252 -90 184 -81 230
-93 317 -84 39 4 84 7 101 7 24 1 50 21 140 112 172 173 215 265 236 497 15
175 7 592 -15 719 -26 151 -72 313 -122 431 -25 60 -47 109 -49 109 -1 0 -29
-20 -61 -44z m110 -926 c5 -25 9 -115 9 -200 0 -180 -18 -264 -82 -395 -44
-90 -102 -156 -187 -212 -53 -35 -63 -38 -143 -41 -77 -3 -90 -1 -121 20 -19
13 -45 39 -58 58 -22 32 -24 42 -19 120 3 47 9 95 14 108 8 22 12 18 63 -52
55 -78 60 -81 130 -76 91 6 164 68 226 192 76 152 124 332 124 471 0 50 3 58
17 55 12 -2 21 -18 27 -48z"/>
<path d="M1979 14130 c-85 -15 -99 -32 -124 -160 l-14 -75 67 -152 c48 -108
73 -155 89 -162 27 -12 26 -15 42 137 12 114 44 277 71 365 l18 57 -52 -1
c-28 -1 -72 -5 -97 -9z"/>
<path d="M1440 14043 c-101 -44 -109 -46 -205 -47 -55 -1 -122 3 -150 7 -46 7
-67 10 -163 20 -18 2 -36 -1 -40 -7 -3 -6 -7 -98 -7 -204 l-1 -194 56 -47 c30
-27 111 -92 180 -146 69 -53 126 -100 127 -104 1 -3 -71 -53 -160 -111 l-162
-105 80 -7 c307 -28 475 -61 603 -119 77 -34 227 -135 398 -265 70 -53 154
-109 187 -125 57 -26 161 -48 174 -36 16 16 -131 254 -326 527 -185 260 -235
352 -376 696 -30 72 -64 172 -76 222 -12 51 -25 92 -28 92 -3 -1 -53 -22 -111
-47z"/>
<path d="M6361 14054 c-23 -85 -80 -331 -87 -370 -9 -60 12 -147 62 -252 90
-192 188 -327 343 -474 l100 -94 108 -27 c206 -50 285 -60 438 -53 134 6 284
23 407 47 l57 11 36 91 36 91 -3 147 c-3 161 -8 176 -72 223 l-27 21 -47 -26
c-253 -138 -231 -129 -352 -139 -259 -21 -417 30 -575 185 -88 86 -145 170
-268 395 -52 96 -106 195 -120 219 l-25 44 -11 -39z"/>
<path d="M20900 14026 c0 -10 52 -140 77 -191 l28 -58 225 6 c124 4 333 15
465 27 132 11 328 20 435 20 l195 1 -80 44 c-134 74 -382 122 -667 127 l-146
2 -84 -41 -83 -42 -125 9 c-69 5 -129 10 -134 10 -8 0 -4 39 9 73 6 15 0 17
-54 17 -34 0 -61 -2 -61 -4z"/>
<path d="M20640 13999 c-41 -10 -85 -21 -98 -24 -20 -5 -21 -10 -16 -44 6 -35
4 -39 -25 -51 -17 -7 -31 -16 -31 -21 0 -16 74 -57 130 -72 30 -9 85 -18 121
-21 63 -6 67 -5 73 16 5 19 -5 91 -30 216 -5 27 -20 27 -124 1z"/>
<path d="M29265 13946 c-49 -15 -88 -19 -208 -19 l-147 1 23 -32 c21 -27 200
-269 695 -936 79 -107 147 -196 151 -197 3 -2 35 83 71 187 47 137 62 194 55
204 -6 8 -138 194 -295 413 l-285 399 -60 -20z"/>
<path d="M2635 13924 c-53 -29 -72 -52 -68 -82 9 -60 15 -73 45 -107 43 -50
97 -75 158 -75 54 0 81 10 118 43 44 40 17 173 -43 213 -38 25 -170 30 -210 8z"/>
<path d="M20938 13614 c-14 -32 -61 -153 -103 -267 l-77 -208 222 -229 c122
-126 255 -259 296 -296 l75 -67 -32 -33 c-18 -18 -35 -33 -38 -32 -3 0 -8 -1
-11 -2 -17 -7 -131 -7 -136 1 -3 5 -10 7 -15 4 -5 -4 -15 -3 -21 2 -23 14 -42
8 -73 -19 -16 -16 -34 -28 -40 -28 -5 0 -18 -11 -28 -25 -17 -24 -16 -25 41
-117 32 -51 91 -151 132 -223 40 -71 74 -131 75 -133 1 -1 78 27 171 64 93 36
216 82 273 100 l104 35 53 -35 53 -35 88 35 c48 19 194 86 323 149 129 62 258
122 285 133 127 51 246 113 239 125 -25 42 -248 288 -564 622 -130 138 -293
310 -361 383 l-124 133 -225 3 c-124 3 -299 7 -391 12 l-165 7 -26 -59z m496
-39 l280 -14 54 -53 c30 -29 165 -172 300 -318 136 -146 322 -345 415 -443
141 -149 168 -181 165 -204 -2 -14 -10 -30 -18 -34 -76 -41 -563 -267 -654
-304 l-118 -47 -76 73 c-42 40 -270 264 -505 498 l-428 426 77 210 c42 116 78
213 81 218 6 10 112 9 427 -8z"/>
<path d="M32935 12413 c-47 -10 -47 -11 -6 -85 77 -140 75 -122 29 -423 -22
-146 -38 -268 -36 -271 3 -2 49 -9 104 -14 161 -15 442 -11 674 10 254 23 736
81 751 91 7 4 6 28 -2 73 -15 79 -16 80 -129 90 -219 19 -585 142 -1043 350
-32 15 -113 62 -179 106 -67 44 -126 79 -132 79 -6 -1 -20 -3 -31 -6z"/>
<path d="M36830 12286 c-289 -75 -382 -117 -498 -228 -110 -104 -232 -193
-463 -338 -328 -206 -818 -564 -819 -597 0 -17 75 -187 117 -263 20 -36 78
-137 129 -226 52 -88 94 -166 94 -173 0 -30 -406 -194 -415 -168 -3 6 -23 66
-46 132 -22 66 -65 183 -95 261 -30 77 -54 144 -54 148 0 7 -100 278 -105 284
-1 1 -28 -7 -61 -18 -192 -67 -534 -153 -751 -189 -206 -35 -646 -71 -875 -71
l-127 0 23 -67 c13 -38 71 -179 130 -315 58 -136 106 -253 106 -259 0 -7 13
-8 43 -2 85 17 163 8 232 -26 99 -49 146 -127 146 -244 1 -81 -29 -136 -123
-229 -93 -92 -133 -114 -439 -239 -120 -48 -232 -95 -249 -104 -17 -9 -165
-70 -328 -136 -163 -66 -405 -165 -537 -218 -359 -147 -1241 -496 -1315 -522
-36 -12 -72 -30 -81 -39 -16 -19 -135 -298 -128 -303 2 -2 25 -15 51 -30 150
-86 200 -201 148 -341 -24 -63 -78 -117 -136 -137 -51 -17 -157 -17 -217 0
l-49 14 7 46 c8 50 41 140 103 272 l39 86 -316 549 c-353 611 -533 921 -763
1314 -85 146 -188 325 -228 399 l-73 134 -106 -7 c-241 -16 -299 -27 -697
-139 -221 -62 -343 -86 -505 -99 l-137 -11 80 -121 c44 -67 93 -146 108 -176
46 -89 44 -88 165 -105 225 -32 482 -106 662 -190 185 -87 344 -197 357 -249
8 -34 -9 -74 -38 -87 -40 -19 -86 -3 -206 73 -243 151 -470 236 -787 292 l-31
5 39 -117 c85 -251 155 -594 199 -972 11 -96 26 -231 34 -300 40 -342 45 -766
19 -1555 -10 -275 -17 -567 -17 -650 l0 -150 71 -210 c61 -179 113 -373 125
-464 2 -17 13 -28 36 -36 42 -14 47 -23 61 -112 15 -99 14 -248 -3 -313 -8
-29 -12 -60 -9 -67 4 -10 64 -13 297 -13 384 0 1341 -16 2217 -36 388 -8 719
-14 736 -12 l32 3 -118 190 c-116 188 -648 1019 -826 1290 -50 77 -184 282
-298 455 -113 173 -282 425 -374 559 l-169 244 -62 13 c-119 24 -238 103 -427
284 -44 42 -210 200 -370 351 -294 277 -441 418 -729 698 l-159 155 39 33 c59
49 90 61 225 82 158 26 305 38 599 51 129 5 264 12 300 16 l65 5 34 -58 c19
-32 136 -222 261 -423 125 -201 245 -396 267 -435 42 -72 168 -441 193 -563
13 -62 12 -64 -18 -122 l-30 -59 95 -133 c384 -536 1572 -2397 1746 -2734 l16
-31 -37 -11 c-108 -32 -164 -34 -592 -23 -475 12 -1387 27 -2302 37 l-608 6 0
-23 c0 -13 7 -109 15 -214 8 -104 15 -193 15 -196 0 -3 269 -9 598 -12 788 -8
2549 -36 2777 -43 l180 -6 -12 -101 c-45 -388 18 -755 172 -1002 57 -93 116
-149 193 -187 82 -41 182 -44 252 -8 142 71 247 221 329 467 53 156 43 324
-44 773 -24 124 -48 264 -53 312 -8 77 -15 96 -56 166 l-46 80 -4 348 c-3 293
-14 475 -29 491 -5 4 -414 119 -507 142 -182 45 -324 141 -409 275 -80 128
-268 650 -350 971 -42 167 -86 384 -79 390 14 14 268 -131 462 -262 197 -133
305 -182 501 -225 134 -29 508 -11 775 38 361 67 377 73 740 293 l175 106 170
2 c94 1 213 6 265 12 52 5 186 14 296 21 526 30 760 93 1324 360 96 46 177 84
178 86 8 6 -29 158 -77 314 -27 91 -113 351 -190 578 -104 309 -136 412 -123
407 67 -29 177 -57 259 -66 219 -26 551 47 837 185 202 98 596 409 921 729 82
81 139 143 125 136 -50 -24 -176 -113 -240 -168 -90 -79 -162 -132 -330 -245
-247 -166 -458 -256 -647 -275 -354 -36 -518 111 -822 739 -198 409 -371 818
-371 875 0 20 20 15 95 -23 102 -51 175 -111 375 -306 223 -219 302 -283 419
-342 71 -36 83 -39 178 -42 79 -3 120 1 185 17 149 38 301 126 376 220 32 40
32 41 7 31 -14 -5 -80 -35 -148 -66 -180 -84 -219 -95 -333 -101 -179 -10
-233 18 -499 257 -230 207 -534 458 -598 495 -28 16 -101 46 -162 66 l-110 36
115 115 c128 128 195 178 483 358 279 176 877 621 1052 783 72 67 68 68 -105
23z m-2527 -1680 c68 -44 101 -80 128 -140 26 -59 22 -105 -17 -213 -26 -72
-27 -73 -83 -94 -142 -53 -218 -49 -299 18 -139 114 -117 343 40 424 93 47
163 49 231 5z m260 -1175 c53 -13 82 -42 125 -130 32 -65 37 -83 37 -150 0
-116 -20 -158 -98 -204 -160 -93 -265 -88 -374 19 -64 63 -88 133 -80 230 8
100 79 199 163 229 44 16 170 19 227 6z m-1988 -542 c72 -31 82 -39 102 -79
53 -105 53 -233 3 -337 -48 -98 -94 -126 -226 -140 -126 -12 -246 57 -300 172
-50 106 -22 259 62 340 93 91 214 106 359 44z m2993 -314 c121 -56 172 -129
172 -244 0 -188 -195 -309 -364 -227 -69 34 -112 84 -133 155 -40 140 30 269
174 317 86 29 87 29 151 -1z m-1865 -253 c60 -32 111 -101 143 -190 30 -86 30
-92 -7 -168 -37 -75 -102 -144 -164 -173 -64 -30 -172 -29 -240 3 -176 82
-225 335 -92 474 87 91 247 115 360 54z m-2237 -67 c73 -22 128 -73 170 -162
27 -55 35 -83 31 -106 -10 -58 -49 -148 -80 -184 -34 -39 -113 -79 -174 -89
-54 -8 -140 18 -195 59 -185 140 -143 403 75 478 64 22 108 23 173 4z m3254
-302 c30 -8 61 -20 68 -26 35 -29 125 -257 108 -274 -2 -3 -58 -23 -123 -44
-65 -22 -160 -62 -212 -89 -52 -28 -97 -50 -102 -50 -17 0 -73 67 -92 110 -14
32 -20 66 -20 115 1 110 45 192 129 241 79 47 127 50 244 17z m-1923 -427
c134 -148 129 -306 -14 -436 l-57 -52 -100 4 c-118 5 -163 23 -220 90 -88 102
-86 265 5 363 67 73 106 87 233 83 l109 -3 44 -49z m-3370 -193 c-2 -32 -3 -6
-3 57 0 63 1 89 3 58 2 -32 2 -84 0 -115z m-10 -175 c-3 -7 -5 -2 -5 12 0 14
2 19 5 13 2 -7 2 -19 0 -25z"/>
<path d="M5937 12140 c-20 -69 -42 -159 -48 -200 -34 -233 -72 -316 -209 -452
-80 -78 -114 -104 -182 -137 -109 -53 -182 -71 -295 -71 -68 0 -110 6 -159 22
-66 21 -67 22 -94 83 -15 34 -31 76 -34 93 -4 17 -13 35 -19 40 -7 5 -69 15
-140 21 -195 17 -183 19 -212 -40 -26 -49 -26 -54 -16 -149 11 -117 23 -141
96 -208 117 -107 231 -141 495 -149 l185 -5 92 30 c231 78 367 187 449 360 86
181 124 372 131 652 3 107 4 204 2 215 -3 11 -21 -36 -42 -105z"/>
<path d="M3648 10289 l-98 -121 98 -65 c259 -175 476 -382 537 -516 83 -181
38 -410 -106 -540 l-59 -54 42 -6 c84 -11 158 12 296 91 l62 36 0 167 c0 405
-58 644 -204 835 -67 88 -163 161 -301 230 -168 83 -152 87 -267 -57z"/>
<path d="M29005 8863 c-167 -6 -591 -36 -602 -42 -9 -5 -6 -16 12 -41 25 -36
476 -471 750 -726 430 -398 506 -458 621 -494 94 -29 97 -28 89 23 -24 165
-91 312 -310 682 -176 298 -259 443 -301 528 l-38 77 -76 -2 c-41 -1 -106 -3
-145 -5z"/>
<path d="M26310 8203 c-65 -334 -229 -907 -382 -1336 -56 -157 -59 -170 -47
-205 22 -69 51 -116 193 -316 165 -233 758 -1087 945 -1361 71 -104 156 -221
188 -260 l58 -70 7 40 c4 22 7 61 7 86 1 44 3 47 32 53 17 3 43 6 57 6 l25 0
-7 203 c-3 111 -12 236 -20 277 -8 41 -97 365 -200 721 -245 853 -368 1184
-797 2151 -19 43 -37 78 -40 78 -3 0 -11 -30 -19 -67z"/>
<path d="M5019 6602 c11 -15 75 -91 143 -168 166 -190 198 -254 213 -413 17
-182 -54 -347 -284 -661 -75 -102 -78 -107 -89 -185 -6 -44 -31 -147 -56 -228
-60 -192 -76 -260 -76 -329 0 -51 3 -60 25 -74 14 -9 27 -15 29 -13 13 14 61
172 100 333 89 356 174 534 456 951 l122 180 -78 234 -79 234 -72 19 c-78 20
-172 55 -296 112 l-78 35 20 -27z"/>
<path d="M25757 6373 l-67 -197 76 -115 c43 -64 223 -329 401 -589 178 -260
321 -477 318 -482 -3 -5 -18 -11 -34 -15 -16 -3 -55 -22 -88 -41 -180 -109
-292 -317 -350 -654 -21 -120 -23 -422 -4 -535 54 -328 181 -574 346 -671 46
-27 57 -29 150 -29 119 0 155 15 248 104 187 177 291 463 304 829 l6 174 21
-25 c19 -23 92 -47 140 -47 17 0 54 187 63 316 l6 91 -90 119 c-138 184 -314
433 -615 870 -151 220 -354 510 -450 645 -96 134 -203 287 -238 339 -34 52
-65 98 -69 102 -3 4 -36 -81 -74 -189z"/>
<path d="M33779 5644 l-26 -46 49 -81 c28 -45 77 -136 110 -202 33 -66 95
-181 136 -255 42 -74 99 -182 128 -240 53 -106 113 -264 104 -274 -3 -2 -54
-10 -113 -17 l-107 -13 0 -139 0 -140 56 7 c179 21 198 20 229 -7 28 -23 30
-30 29 -90 -3 -188 -134 -385 -339 -508 l-73 -44 -51 -165 c-43 -139 -100
-349 -126 -464 l-6 -29 128 5 c181 8 323 47 521 147 127 64 211 171 244 313
20 82 16 437 -6 578 -45 289 -177 848 -260 1094 -105 314 -176 427 -314 499
-59 31 -266 117 -281 117 -3 0 -18 -21 -32 -46z"/>
<path d="M28407 3347 c5 -191 2 -278 -12 -409 -11 -110 -15 -198 -11 -255 4
-48 9 -117 11 -153 3 -42 -3 -111 -18 -195 l-22 -130 -48 -3 c-43 -3 -49 -6
-66 -40 -73 -141 -192 -257 -294 -286 -73 -21 -326 -55 -505 -67 -167 -12
-357 -1 -447 26 -67 19 -135 65 -160 107 -16 28 -19 49 -17 131 1 53 0 97 -2
97 -2 0 -20 -7 -40 -15 -45 -19 -69 -57 -102 -162 -23 -72 -26 -96 -22 -185 5
-153 26 -178 192 -234 177 -61 476 -90 826 -81 232 6 286 16 418 78 101 48
186 128 229 214 101 201 253 715 314 1061 18 102 23 168 23 314 1 182 0 186
-26 240 -15 30 -41 71 -58 91 -37 46 -116 99 -146 99 l-22 0 5 -243z"/>
<path d="M8295 2119 c-257 -170 -576 -257 -837 -229 -96 11 -195 40 -332 97
-32 13 -59 23 -60 21 -1 -2 -43 -46 -93 -98 l-92 -96 127 0 c99 0 145 -5 212
-22 171 -45 363 -159 515 -304 l66 -63 -41 -47 c-22 -26 -50 -50 -61 -53 -15
-5 -48 16 -140 90 -209 168 -298 212 -446 222 -44 3 -125 0 -178 -6 l-96 -13
-22 28 c-12 15 -26 33 -32 40 -7 9 -33 -13 -96 -84 -48 -53 -86 -98 -85 -99 1
-2 54 -9 117 -18 195 -25 396 -91 649 -211 l115 -55 -3 -74 c-2 -50 -8 -75
-15 -75 -36 0 -170 47 -300 105 -82 36 -186 76 -232 90 -80 23 -264 55 -317
55 -19 0 -33 12 -59 55 l-35 56 -114 -138 c-148 -177 -203 -251 -241 -329
l-31 -62 18 -83 c14 -63 26 -92 55 -129 107 -135 291 -195 682 -220 268 -17
562 16 781 87 138 44 332 143 456 231 109 78 331 288 366 347 32 55 51 147 59
286 8 140 -10 262 -61 417 -39 119 -123 322 -132 321 -4 0 -34 -18 -67 -40z"/>
<path d="M25257 2088 c-33 -136 -85 -241 -316 -640 -13 -22 -14 -31 -4 -45 51
-73 115 -184 125 -214 12 -43 -5 -87 -97 -249 -46 -80 -56 -110 -70 -189 -30
-174 -48 -194 -196 -221 -555 -99 -1015 -69 -1322 87 -27 13 -52 21 -55 18 -9
-8 -41 -237 -42 -292 0 -49 10 -58 145 -126 319 -159 706 -197 1190 -116 119
20 317 64 419 94 l53 16 17 77 c9 42 23 176 31 297 26 383 32 412 150 629 104
191 109 212 102 416 -3 91 -12 197 -20 235 -16 73 -59 213 -80 264 l-13 31
-17 -72z"/>
<path d="M18234 1676 c-43 -30 -130 -98 -192 -150 -167 -141 -205 -169 -447
-323 -244 -156 -278 -174 -433 -237 -589 -240 -1294 -320 -2027 -230 -229 28
-562 111 -996 249 -20 7 -26 -15 -39 -127 -12 -106 3 -235 37 -310 63 -141
252 -245 573 -314 321 -69 585 -96 925 -96 446 1 777 53 1250 198 266 81 434
140 527 183 149 69 425 265 708 503 157 131 178 163 217 321 l25 102 -18 135
c-9 74 -20 138 -24 143 -3 4 -42 -17 -86 -47z"/>
<path d="M34078 1438 c-56 -133 -97 -191 -197 -274 -172 -144 -423 -233 -747
-264 -367 -34 -684 18 -1063 177 -57 23 -107 43 -111 43 -4 0 -13 -14 -20 -30
-28 -68 11 -215 78 -291 77 -88 184 -115 687 -176 200 -24 523 -24 633 0 164
36 294 90 420 173 217 145 316 308 357 593 26 172 18 182 -37 49z"/>
</g>
</svg>
