<svg width="25" height="13" viewBox="0 0 25 13" fill="none" xmlns="http://www.w3.org/2000/svg">
<path d="M6.41014 10.562C6.41014 11.3729 5.74668 12.0363 4.93578 12.0363C4.12489 12.0363 3.46143 11.3729 3.46143 10.562C3.46143 9.7511 4.12489 9.08765 4.93578 9.08765C5.74668 9.08765 6.41014 9.7511 6.41014 10.562Z" fill="#4076E5"/>
<path d="M21.1538 10.5766C21.1538 11.3875 20.4903 12.051 19.6794 12.051C18.8685 12.051 18.2051 11.3875 18.2051 10.5766C18.2051 9.76575 18.8685 9.10229 19.6794 9.10229C20.4903 9.10229 21.1538 9.76575 21.1538 10.5766Z" fill="#4076E5"/>
<path d="M23.9108 5.66716C23.8813 5.62293 23.8371 5.57871 23.7781 5.54922V5.53448L21.8319 4.26655L21.6992 4.17809L21.6845 4.16334C21.6698 4.1486 21.655 4.13385 21.6403 4.11911V4.10437L20.9178 3.21976L18.78 0.551216V0.53647C18.7505 0.49224 18.7063 0.44801 18.6621 0.433267C18.6178 0.389036 18.5736 0.374297 18.5294 0.34481C18.4999 0.34481 18.4851 0.330066 18.4704 0.315323C18.4409 0.300579 18.4114 0.300576 18.3819 0.300576C18.3672 0.285833 18.3672 0.285835 18.3524 0.285835H18.323H18.3082C18.264 0.271092 18.2492 0.256348 18.205 0.256348H1.24987C1.10244 0.256348 0.955005 0.300578 0.837056 0.389038C0.792825 0.418525 0.763335 0.448011 0.719105 0.492241C0.586412 0.624932 0.512695 0.801853 0.512695 0.993517V9.83954C0.512695 10.0459 0.601156 10.2229 0.719105 10.3703C0.763335 10.4145 0.822311 10.444 0.881285 10.4735C0.955003 10.5177 1.02872 10.5472 1.10244 10.562C1.13193 10.5767 1.14667 10.5767 1.17615 10.5767H2.72423C2.73898 9.35301 3.71205 8.37995 4.93577 8.37995C6.15949 8.37995 7.13257 9.35301 7.14731 10.5767H17.4678C17.4826 9.35301 18.4556 8.37995 19.6794 8.37995C20.9031 8.37995 21.8762 9.35301 21.8909 10.5767H23.439C23.4685 10.5767 23.4832 10.5767 23.5127 10.562C23.5864 10.5472 23.6601 10.5177 23.7339 10.4735C23.7928 10.444 23.8518 10.4145 23.896 10.3703C24.014 10.2229 24.1024 10.0459 24.1024 9.83954V6.1537C24.1024 5.97678 24.0435 5.79985 23.9108 5.66716ZM15.2563 4.6941V1.74543H17.8512L20.2101 4.6941H15.2563Z" fill="#4076E5"/>
</svg>
